<svg id="aadhar_icon-01" xmlns="http://www.w3.org/2000/svg" width="32" height="20.642" viewBox="0 0 32 20.642">
  <path id="Path_12443" data-name="Path 12443" d="M.51,21.989a2.363,2.363,0,0,0,.712-.65,6.06,6.06,0,0,1,.826-.877,3.146,3.146,0,0,1,1.518-.7,13.436,13.436,0,0,0-.2,2.228Zm2.148-7.995h0a2.18,2.18,0,0,0,.94-.206,6.5,6.5,0,0,1,1.157-.351,3.1,3.1,0,0,1,1.673.155A13.208,13.208,0,0,0,4.186,17.45a3.127,3.127,0,0,1-.971-1.372A5.735,5.735,0,0,1,2.937,14.9a2.283,2.283,0,0,0-.289-.918h0ZM8.513,8.146h0a2.288,2.288,0,0,0,.919.289,5.75,5.75,0,0,1,1.177.279,3.131,3.131,0,0,1,1.373.97A13.054,13.054,0,0,0,8.11,11.921a3.128,3.128,0,0,1-.155-1.681,5.731,5.731,0,0,1,.351-1.155,2.24,2.24,0,0,0,.207-.939Zm8-2.146h0a2.247,2.247,0,0,0,.651.712,6.061,6.061,0,0,1,.878.825,3.128,3.128,0,0,1,.7,1.537,13.017,13.017,0,0,0-4.471,0,3.172,3.172,0,0,1,.7-1.537,5.544,5.544,0,0,1,.878-.825A2.49,2.49,0,0,0,16.505,6Zm8,2.146h0a2.174,2.174,0,0,0,.207.939,6.481,6.481,0,0,1,.351,1.155,3.136,3.136,0,0,1-.155,1.681,13.281,13.281,0,0,0-3.872-2.238,3.049,3.049,0,0,1,1.373-.97A5.75,5.75,0,0,1,23.6,8.434a2.288,2.288,0,0,0,.919-.289Zm5.855,5.849h0a2.283,2.283,0,0,0-.289.918,5.734,5.734,0,0,1-.279,1.176,3.186,3.186,0,0,1-.971,1.372A13.076,13.076,0,0,0,26.594,13.6a3.1,3.1,0,0,1,1.673-.155,5.746,5.746,0,0,1,1.157.351,2.246,2.246,0,0,0,.94.206h0Zm-.919,5.766a3.058,3.058,0,0,1,1.518.7,5.542,5.542,0,0,1,.826.877,2.363,2.363,0,0,0,.712.65H29.64a12.168,12.168,0,0,0-.2-2.228ZM20.336,10.5a12.163,12.163,0,0,1,8.343,11.492H26.294A12.746,12.746,0,0,0,20.346,10.5h0Z" transform="translate(-0.51 -6)" fill="#fab401" fill-rule="evenodd"/>
  <path id="Path_12444" data-name="Path 12444" d="M20.661,21.909H21.9a13,13,0,0,0-.5-4.363,6.074,6.074,0,0,0-.3-.8,7.11,7.11,0,0,0-1.042-1.658A7.536,7.536,0,0,0,18.4,13.62a6.3,6.3,0,0,0-.578-.321h0a4.1,4.1,0,0,0-.619-.259h0a8.427,8.427,0,0,0-6.911.87c-.4.218-.784.456-1.155.7s-.712.508-1.042.777h0a15.568,15.568,0,0,0-1.362,1.264l-.278.311c-.248.28-.619.663-.505,1.067.093.321.5.228.64.114a3.99,3.99,0,0,0,.67-.477c.278-.238.547-.5.815-.736A13.7,13.7,0,0,1,11.5,14.708c.248-.114.505-.207.753-.3s.5-.166.743-.228h0a5.688,5.688,0,0,1,5.941,1.554c1.434,1.689,1.692,3.938,1.712,6.186h0ZM5.271,20a4.847,4.847,0,0,0,.413-.466.676.676,0,0,0,.144-.674A.5.5,0,0,0,5.7,18.7a.573.573,0,0,0-.175-.093.511.511,0,0,0-.516.218,2.273,2.273,0,0,0-.5.953,1.126,1.126,0,0,0,0,.187.314.314,0,0,0,.052.166h0a.216.216,0,0,0,.206.124h.062a.2.2,0,0,0,.072-.01h0A.862.862,0,0,0,5.292,20h0Zm12.873,1.907h1.227a8.472,8.472,0,0,0-.856-4.269,3.922,3.922,0,0,0-2.95-2.186,7.79,7.79,0,0,0-5.5,1.7A20.7,20.7,0,0,0,5.529,21.92h1.63c1.465-2.083,4.827-5.254,7.3-5.274a3.186,3.186,0,0,1,2.187.715,2.651,2.651,0,0,1,.928,1.741c-.01.363-.33.466-.64.363a1.316,1.316,0,0,1-.567-.528,2.374,2.374,0,0,0-2.3-.984,7.339,7.339,0,0,0-3.342,1.793A22.249,22.249,0,0,0,8.613,21.93h1.743a8.876,8.876,0,0,1,2.187-1.979,4.976,4.976,0,0,1,.97-.477c.9-.311,1.795-.228,2.187.891a3.651,3.651,0,0,1,.134,1.544v.031H17.02V21.9c0-.394,0-.653.031-1.036.031-.332.134-.674.444-.715.65-.135.619,1.326.64,1.793h0ZM9.769,25.681H8.8l-.237.85H7.788l1.021-3.243h.98l1.052,3.243h-.8l-.258-.85Zm-.856-.549h.743c-.2-.632-.32-1.067-.382-1.306h0l-.155.611-.2.684Zm-2.692.549h-.97l-.237.85H4.24l1.021-3.243h.98l1.052,3.243h-.8l-.258-.85Zm-.856-.549h.743c-.2-.632-.32-1.067-.382-1.306h0l-.155.611-.2.684Zm6.209,1.378V23.329a6.4,6.4,0,0,1,1.021-.073,2.06,2.06,0,0,1,1.475.435,1.494,1.494,0,0,1,.444,1.129,1.645,1.645,0,0,1-.505,1.285,2.283,2.283,0,0,1-1.578.456,6.957,6.957,0,0,1-.866-.052h0Zm.743-2.653v2.114s.134.01.268.01a1.176,1.176,0,0,0,.856-.29,1.1,1.1,0,0,0,.3-.839.973.973,0,0,0-.278-.756,1.162,1.162,0,0,0-.794-.259,1.158,1.158,0,0,0-.351.031h0Zm3-.57h.743v1.243h1.269V23.288h.743v3.243h-.743V25.184H16.061v1.347h-.743Zm5.436,2.394h-.97l-.237.85h-.774l1.021-3.243h.98l1.042,3.243h-.8Zm-.856-.549h.743c-.2-.632-.32-1.067-.382-1.306h0l-.155.611-.2.684Zm4.4.549h-.97l-.237.85h-.774l1.021-3.243h.98l1.042,3.243h-.8Zm-.856-.549h.743c-.2-.632-.32-1.067-.382-1.306h0l-.155.611-.2.684Zm2.661,1.389V23.329a5.5,5.5,0,0,1,1-.073,1.835,1.835,0,0,1,1.052.238.816.816,0,0,1,.32.694.772.772,0,0,1-.165.487.879.879,0,0,1-.413.311v.021a.782.782,0,0,1,.433.591c.165.58.258.891.268.922h-.753a3.593,3.593,0,0,1-.227-.756.736.736,0,0,0-.186-.4.513.513,0,0,0-.371-.114H26.84v1.275h-.732Zm.732-2.694v.891h.309a.675.675,0,0,0,.433-.124.423.423,0,0,0,.165-.342.417.417,0,0,0-.144-.332.613.613,0,0,0-.413-.114,1.422,1.422,0,0,0-.351.021Zm-13.12-1.917h.99c.134-.839-.124-1.482-.97-1.326a4.267,4.267,0,0,0-1.929,1.326h1.3c.144-.1.433-.207.547-.124a.193.193,0,0,1,.072.135h0Zm10.067,0h0a.565.565,0,0,0,.485-.269.352.352,0,0,0,.062-.155.606.606,0,0,0,.031-.2h0A11.547,11.547,0,0,0,21.62,13,8.757,8.757,0,0,0,20.5,11.972a8.208,8.208,0,0,0-1.269-.808h0a9.085,9.085,0,0,0-4.889-.933c-.33.031-.65.073-.97.135s-.64.135-.959.228h0a10.944,10.944,0,0,0-4.631,2.87c-.258.259-.5.528-.732.819-.113.145-.227.28-.33.425a16.427,16.427,0,0,1,2.929-2.052c.227-.124.464-.238.7-.352s.474-.207.712-.3h0a10.9,10.9,0,0,1,2.7-.684,9.857,9.857,0,0,1,2.7.073,8.08,8.08,0,0,1,1.846.508c.113.041.217.093.33.145s.206.1.309.166h0a9,9,0,0,1,4.012,5.927,12.366,12.366,0,0,1,.268,1.523,13.079,13.079,0,0,1,.083,1.554h0v.031a.7.7,0,0,0,.268.611.366.366,0,0,0,.093.041h0a1.069,1.069,0,0,0,.113.01h0Z" transform="translate(-0.375 -5.92)" fill="#d32828" fill-rule="evenodd"/>
</svg>
