<svg xmlns="http://www.w3.org/2000/svg" width="24" height="23.869" viewBox="0 0 24 23.869">
  <path id="Phone_call_icon-01" d="M7.158,10.437A20.155,20.155,0,0,0,10.1,14.561,16.827,16.827,0,0,0,14.769,18a.5.5,0,0,0,.4.023,1.721,1.721,0,0,0,.559-.412,5.639,5.639,0,0,0,.513-.629c.753-.986,1.677-2.213,2.99-1.6a.718.718,0,0,0,.078.039l4.372,2.516s.031.023.039.031a1.983,1.983,0,0,1,.823,1.7,4.514,4.514,0,0,1-.645,2.167,4.423,4.423,0,0,1-2.1,1.856A9.817,9.817,0,0,1,19.2,24.4a8.773,8.773,0,0,1-3.961-.334,17.375,17.375,0,0,1-3.984-1.926l-.1-.07c-.645-.4-1.344-.839-2.035-1.344A25.51,25.51,0,0,1,2.39,13.086,12.439,12.439,0,0,1,.658,5.25a5.619,5.619,0,0,1,1.91-3.58A5.13,5.13,0,0,1,6.374.652a.576.576,0,0,1,.443.28l2.8,4.737a1.473,1.473,0,0,1,.233,1.584,3.074,3.074,0,0,1-1.072,1.2c-.148.132-.334.256-.52.4-.629.458-1.344.979-1.1,1.6v-.016h0Z" transform="translate(-0.546 -0.625)" fill="#a269b4"/>
</svg>
