<svg xmlns="http://www.w3.org/2000/svg" width="26.251" height="19.758" viewBox="0 0 26.251 19.758">
  <g id="Group_137226" data-name="Group 137226" transform="translate(21623.125 17832.125)">
    <path id="Path_19436" data-name="Path 19436" d="M24.4,5H3.6A2.634,2.634,0,0,0,1,7.66V21.847a2.634,2.634,0,0,0,2.6,2.66H24.4a2.634,2.634,0,0,0,2.6-2.66V7.66A2.634,2.634,0,0,0,24.4,5Zm.867,16.847a.878.878,0,0,1-.867.887H3.6a.878.878,0,0,1-.867-.887V7.66A.878.878,0,0,1,3.6,6.773H24.4a.878.878,0,0,1,.867.887Z" transform="translate(-21624 -17837)" fill="#0055a7" stroke="#0055a7" stroke-width="0.25"/>
    <path id="Path_19437" data-name="Path 19437" d="M13.036,14.726a3.475,3.475,0,0,0,.637-2,3.384,3.384,0,1,0-6.767,0,3.475,3.475,0,0,0,.637,2,3.872,3.872,0,0,0-2.259,3.531V20.4a.885.885,0,0,0,.876.894H14.42A.885.885,0,0,0,15.3,20.4V18.258a3.872,3.872,0,0,0-2.26-3.532Zm-2.747-3.667a1.666,1.666,0,1,1-1.632,1.666A1.651,1.651,0,0,1,10.289,11.059Zm3.256,8.451H7.033V18.259a2.061,2.061,0,0,1,2.037-2.08h2.436a2.061,2.061,0,0,1,2.038,2.08v1.252Z" transform="translate(-21624.535 -17837.533)" fill="#0055a7" stroke="#0055a7" stroke-width="0.25"/>
    <path id="Path_19438" data-name="Path 19438" d="M24.968,10.39h-4.4a.876.876,0,1,0,0,1.751h4.4a.876.876,0,1,0,0-1.751Z" transform="translate(-21626.592 -17837.605)" fill="#0055a7" stroke="#0055a7" stroke-width="0.25"/>
    <path id="Path_19439" data-name="Path 19439" d="M24.968,15h-4.4a.876.876,0,1,0,0,1.751h4.4a.876.876,0,0,0,0-1.751Z" transform="translate(-21626.592 -17838.125)" fill="#0055a7" stroke="#0055a7" stroke-width="0.25"/>
    <path id="Path_19440" data-name="Path 19440" d="M24.968,19.61h-4.4a.876.876,0,0,0,0,1.751h4.4a.876.876,0,0,0,0-1.751Z" transform="translate(-21626.592 -17838.637)" fill="#0055a7" stroke="#0055a7" stroke-width="0.25"/>
  </g>
</svg>
