<svg id="Group_133981" data-name="Group 133981" xmlns="http://www.w3.org/2000/svg" width="59" height="59" viewBox="0 0 59 59">
  <g id="Rectangle_6903" data-name="Rectangle 6903" fill="#fff" stroke="#fff" stroke-width="1">
    <rect width="59" height="59" rx="29.5" stroke="none"/>
    <rect x="0.5" y="0.5" width="58" height="58" rx="29" fill="none"/>
  </g>
  <g id="Layer_x0020_1" transform="translate(8.419 9.457)">
    <g id="Group_133980" data-name="Group 133980" transform="translate(0 0)">
      <path id="Path_12271" data-name="Path 12271" d="M53.365,31.93a21.386,21.386,0,0,1,13.4,4.689l-.329.328a21.025,21.025,0,0,0-26.139,0l-.329-.328A21.386,21.386,0,0,1,53.365,31.93Zm16.744,8.026a21.354,21.354,0,0,1,0,26.731l-.329-.328a20.894,20.894,0,0,0,0-26.076ZM36.621,66.688a21.354,21.354,0,0,1,0-26.731l.329.328a20.894,20.894,0,0,0,0,26.076ZM53.365,35.524A17.791,17.791,0,0,1,64.2,39.179l-.33.329a17.416,17.416,0,0,0-21,0l-.33-.329a17.791,17.791,0,0,1,10.832-3.655Zm14.178,6.992a17.767,17.767,0,0,1,0,21.611l-.33-.329a17.307,17.307,0,0,0,0-20.953ZM39.187,64.128a17.767,17.767,0,0,1,0-21.611l.33.329a17.307,17.307,0,0,0,0,20.953ZM53.365,39.257a14.059,14.059,0,0,1,8.157,2.591l-.332.331a13.67,13.67,0,0,0-15.65,0l-.332-.331a14.058,14.058,0,0,1,8.156-2.591Zm11.5,5.929a14.043,14.043,0,0,1,0,16.273l-.332-.331a13.583,13.583,0,0,0,0-15.612l.332-.331Zm-23,16.273a14.043,14.043,0,0,1,0-16.273l.332.331a13.583,13.583,0,0,0,0,15.612Z" transform="translate(-31.803 -31.812)" fill="#2b2a29"/>
      <path id="_1" data-name="1" d="M35.034,4.876l-.163-.163.009.171-.345-.27-.351-.263L33.828,4.1l-.362-.249L33.1,3.6l-.372-.234-.378-.227-.383-.219-.387-.211-.392-.2-.4-.2-.4-.188-.406-.179-.41-.171-.415-.163-.419-.154-.423-.146-.427-.137-.431-.129-.435-.12L26.585.816l-.442-.1L25.7.622,25.249.539,24.8.465,24.342.4,23.884.346,23.423.3,22.96.266,22.493.241,22.024.225,21.553.22V-.01L22.029,0,22.5.01l.471.026.469.036.466.045.463.055.46.065.457.075L25.742.4l.45.093.447.1L27.082.7l.439.121.436.13.432.139.428.148.423.156.419.165.415.173.41.181.406.19.4.2.4.206.392.214.387.222.382.229.376.237.371.244.366.252.36.259.355.266.349.273.009.171ZM35.024,4.7a.115.115,0,1,1-.144.18l.144-.18Zm-.483.336.329-.328.163.163-.329.328-.154.009-.01-.172Zm.163.163a.115.115,0,0,1-.163-.163ZM21.553.681V.451h0l.465.005.462.015.46.025L23.4.53l.454.044L24.3.628l.448.063L25.2.764l.442.082.439.091.436.1.432.109.428.118.425.126.421.135.417.143.413.152.409.16.4.168.4.176.4.184.392.192.387.2.382.208.377.215.373.223.367.23.362.237.357.245.352.252.346.259.341.265-.144.18-.337-.263-.343-.256-.348-.249L33.171,4.2l-.358-.235-.363-.228-.368-.22-.373-.213L31.329,3.1l-.383-.2-.387-.19-.392-.182-.4-.174-.4-.166-.4-.158-.409-.15-.412-.142-.416-.133-.42-.125-.424-.116-.427-.107-.431-.1-.434-.09L25.156.991l-.44-.072L24.272.857,23.826.8,23.376.76,22.924.726,22.47.7,22.012.686l-.46,0h0Zm0,0a.115.115,0,1,1,0-.23ZM8.4,5.2l.163-.163L8.41,5.032l.341-.265L9.1,4.508l.352-.252.357-.245.362-.237.367-.23.373-.223.377-.215.382-.208.387-.2.392-.192.4-.184.4-.176.4-.168.409-.16.413-.152.417-.143.421-.135.425-.126.428-.118.432-.109.436-.1.439-.091L17.91.764l.445-.072L18.8.628l.451-.054L19.709.53,20.166.5l.46-.025.462-.015.465-.005v.23l-.46,0L20.636.7l-.455.025L19.729.76,19.28.8l-.446.053L18.39.919l-.44.072-.437.081-.434.09-.431.1-.427.107-.424.116-.42.125-.416.133-.412.142-.409.15-.4.158-.4.166-.4.174-.392.182-.387.19-.383.2-.378.205-.373.213-.368.22-.363.228L9.935,4.2l-.353.242-.348.249-.343.256-.337.263L8.4,5.2Zm.154.009a.115.115,0,1,1-.144-.18l.144.18Zm-.319-.5.329.328L8.4,5.2l-.329-.328L8.081,4.7l.154.008Zm-.163.163a.115.115,0,1,1,.163-.163ZM21.553-.01V.22h0l-.472.005-.469.015-.466.025L19.682.3l-.461.045L18.763.4l-.455.064-.452.074-.449.083-.445.092-.442.1-.438.111-.435.12-.431.128-.427.137-.423.146-.419.155-.415.163-.41.171-.406.18-.4.188-.4.2-.392.2-.387.211-.382.219-.378.227-.372.234-.367.242L9.278,4.1l-.356.256-.351.263-.345.27L8.081,4.7l.349-.273.355-.266.36-.259.366-.252.371-.244.376-.237.382-.229.387-.221.392-.214.4-.206.4-.2.406-.19.41-.181.415-.173.419-.165.423-.156.428-.148.432-.139.436-.13L16.023.7l.443-.112.447-.1L17.363.4l.453-.084.457-.075.46-.065L19.2.117l.466-.045.469-.036L20.6.011,21.076,0l.477-.005h0Zm0,0a.115.115,0,1,1,0,.23ZM43.114,21.5h-.231l-.005-.47-.015-.468-.025-.465-.035-.463-.045-.46-.055-.457-.064-.454-.074-.451-.083-.447-.093-.444-.1-.441-.111-.437-.12-.434-.129-.43-.138-.426-.146-.422-.155-.418-.163-.414-.172-.409-.18-.405-.188-.4-.2-.4-.2-.391-.212-.387-.22-.382-.227-.377-.235-.371-.242-.366L39,9.255,38.743,8.9l-.264-.35L38.208,8.2l.18-.144.274.348.267.354.259.359.252.365.245.37.237.376.23.381.222.386.214.391.206.4.2.4.19.4.182.409.174.414.165.418.157.422.148.427.139.431.13.434.121.438.112.442.1.446.094.449.084.452.075.456.065.459.055.462.046.465.036.468.026.47.015.473.005.475h0Zm0,0a.115.115,0,0,1-.231,0Zm-4.9,13.449.163-.163-.172.009.271-.344.264-.35L39,33.746l.25-.361.242-.366.235-.371.227-.377.22-.382.212-.387.2-.391.2-.4.188-.4.18-.405.172-.409.163-.414.155-.418.146-.422.138-.426.129-.43.12-.434.111-.437.1-.441.093-.444.083-.447.074-.451.064-.454.055-.457.045-.46.035-.463.025-.465.015-.468.005-.47h.231l-.005.475-.015.473-.026.47-.036.468-.046.465-.055.462-.065.459-.075.456-.084.452-.094.449-.1.446-.112.442-.121.438-.13.434-.139.431-.148.427-.157.422-.165.418L41.365,30l-.182.409-.19.4-.2.4-.206.4L40.375,32l-.222.386-.23.381-.237.376-.245.37-.252.365-.259.359-.267.354-.274.348-.172.009Zm.172-.009a.115.115,0,0,1-.18-.144l.18.144Zm-.337-.481.329.328-.163.163-.329-.328-.009-.153.172-.01Zm-.163.163a.115.115,0,1,1,.163-.163ZM42.421,21.5h.231l-.005.464-.015.461-.025.459-.035.456-.044.453-.054.45-.063.447-.073.444-.082.441-.091.438-.1.435-.109.431-.118.427-.127.424-.135.42-.144.416-.152.412-.16.408-.169.4-.177.4-.185.4-.193.391-.2.386-.208.381-.216.377-.223.372-.231.367-.238.361-.245.356-.252.351-.259.346-.266.34-.181-.144.263-.336.256-.342.249-.347.242-.352.235-.358.228-.363L39.575,32l.213-.372.206-.377.2-.382.191-.386.183-.391.175-.4.167-.4.159-.4.15-.408.142-.411.134-.415.125-.419.116-.423.108-.426.1-.43.09-.433.081-.436.072-.439.063-.442.053-.445.044-.448.034-.451.025-.454.015-.456,0-.459h0Zm0,0a.115.115,0,0,1,.231,0ZM37.888,8.379l.163.163.009-.153.266.34.259.346.252.351.245.356.238.361.231.367.223.372.216.376.208.381.2.386.193.391.185.4.177.4.169.4.16.408.152.412.144.416.135.42.127.424.118.427.109.431.1.435.091.438.082.441.073.444.063.447.054.45.044.453.035.456.025.459.015.461.005.464h-.231l0-.459-.015-.456-.025-.454-.034-.451-.044-.448-.053-.445-.063-.442-.072-.439-.081-.436-.09-.433-.1-.43-.108-.426-.117-.423-.125-.419-.134-.415-.142-.411-.15-.408-.159-.4-.167-.4-.175-.4-.183-.391-.191-.386-.2-.382-.206-.377L39.575,11l-.221-.368-.228-.363-.235-.358-.242-.352L38.4,9.211l-.256-.342-.263-.336.009-.153Zm-.009.153a.115.115,0,0,1,.181-.144l-.181.144Zm.5-.318-.329.328-.163-.163.329-.328.172.009-.008.154Zm-.163-.163a.115.115,0,1,1,.163.163ZM-.009,21.5H.222l.005.47.015.468.025.465.035.463.045.46.055.457.064.454.074.451.083.447.093.444.1.441.111.437.12.434.129.43.138.426.146.422.155.418.163.414.172.409.18.405.188.4.2.4.2.391.212.387.22.382.227.377.235.371.242.366.25.361.257.356.264.35L4.9,34.8l-.18.144-.274-.348-.267-.354-.259-.359-.252-.365-.245-.37-.237-.376-.23-.381L2.731,32l-.214-.391-.206-.4-.2-.4-.19-.4L1.74,30l-.174-.414L1.4,29.169l-.157-.422L1.1,28.32l-.139-.431-.13-.434-.121-.438-.112-.442-.1-.445L.4,25.68l-.084-.452-.075-.456-.065-.459-.055-.462-.046-.465-.036-.468-.026-.47L0,21.976-.009,21.5h0Zm0,0a.115.115,0,0,1,.231,0Zm4.9-13.449-.163.163L4.9,8.2l-.271.344-.264.35-.257.355-.25.361-.242.366-.235.371-.227.377-.22.382-.212.386-.2.391-.2.4-.188.4-.18.405-.172.409-.163.414-.155.418-.146.422-.138.426-.129.43-.12.434-.111.437-.1.441-.093.444-.083.447-.074.451L.4,18.717l-.055.457-.045.46L.267,20.1l-.025.465-.015.468-.005.47H-.009L0,21.025l.015-.473.026-.47.036-.468.046-.465.055-.462.065-.459.075-.456L.4,17.321l.094-.449.1-.446.112-.442.121-.438.13-.434.139-.431.148-.427.157-.422.165-.418L1.74,13l.182-.409.19-.4.2-.4.206-.4L2.731,11l.222-.386.23-.381.237-.376.245-.37.252-.365.259-.359.267-.354.274-.348.172-.009Zm-.172.009A.115.115,0,0,1,4.9,8.2l-.18-.144Zm.337.481-.329-.328.163-.163.329.328.009.153-.172.01Zm.163-.163a.115.115,0,0,1-.163.163ZM.684,21.5H.453l.005-.464.015-.461L.5,20.117l.035-.456.044-.453.054-.45.063-.447.073-.444.082-.441.091-.438.1-.435.109-.431.118-.427.127-.424.135-.42.144-.416.152-.412.16-.408.169-.4.177-.4.185-.4.193-.391.2-.386.208-.381.216-.376.223-.372.231-.367.238-.361.245-.356.252-.351.259-.346.266-.34.181.144-.263.336-.256.342-.249.347-.242.352-.235.358-.228.363L3.53,11l-.213.372-.206.377-.2.382-.191.386-.183.391-.175.4-.167.4-.159.4-.15.408-.142.411-.134.415-.125.419-.116.423-.108.426-.1.43-.09.433-.081.436-.072.439-.063.442-.053.445-.044.448-.034.451L.7,20.586l-.015.456,0,.459h0Zm0,0a.115.115,0,0,1-.231,0ZM5.217,34.621l-.163-.163-.009.153-.266-.34-.259-.346-.252-.351-.245-.356-.238-.361-.231-.367-.223-.372-.216-.377-.208-.381-.2-.386-.193-.391-.185-.4-.177-.4-.169-.4-.16-.408-.152-.412-.144-.416-.135-.42-.127-.424-.118-.427-.109-.431-.1-.435-.091-.438-.082-.441L.694,24.69.63,24.243l-.054-.45-.044-.453L.5,22.883l-.025-.459-.015-.461L.453,21.5H.684l0,.459.015.456.025.454.034.451.044.448.053.445.063.442.072.439.081.436.09.433.1.43.108.426.116.423.125.419.134.415.142.411.15.408.159.4.167.4.175.4.183.391.191.386.2.382.206.377L3.53,32l.221.368.228.363.235.358.242.352.249.347.256.342.263.336-.009.153Zm.009-.153a.115.115,0,0,1-.181.144l.181-.144Zm-.5.318.329-.328.163.163-.329.328-.172-.009.008-.154Zm.163.163a.115.115,0,0,1-.163-.163ZM32.467,7.437,32.3,7.274l.012.173-.282-.211-.286-.205-.29-.2-.295-.194-.3-.188-.3-.183-.307-.177-.31-.171-.314-.165-.318-.159-.321-.152L28.666,5.3l-.328-.14-.332-.133L27.671,4.9l-.338-.12-.341-.113-.344-.107-.347-.1-.35-.093L25.6,4.278,25.242,4.2l-.358-.072-.361-.065L24.159,4l-.366-.05-.368-.042-.37-.035-.373-.027-.375-.02-.377-.012-.379,0v-.23l.383,0,.381.012.379.02.377.028.375.035.373.043.37.051.368.058.366.065.363.073.36.08.358.087.355.094.352.1.349.108.346.115.343.122.339.128.336.135.333.141.329.148.326.154.322.161.318.167.314.173.311.179.307.185.3.191.3.2.294.2.29.208.286.214.012.173Zm-.012-.173a.115.115,0,1,1-.14.183l.14-.183Zm-.482.339.33-.329.163.163-.33.329-.152.01L31.974,7.6Zm.163.163a.115.115,0,0,1-.163-.163ZM21.553,4.276v-.23h0l.371,0,.37.012.368.019.366.027.363.034.361.041.359.049.357.056.354.063.352.07.349.077.347.084.344.091.341.1.338.1.335.111.332.117.329.124.326.13.323.136.319.143.316.149.312.155.309.161.305.167.3.173.3.178.294.184.29.19.286.2.282.2.277.206-.14.184-.274-.2-.278-.2-.282-.193-.286-.187-.29-.182-.294-.176-.3-.17-.3-.165-.3-.159-.308-.153-.312-.147L28.445,5.7l-.318-.135-.321-.128-.325-.122L27.153,5.2l-.331-.109-.334-.1-.337-.1-.339-.09-.342-.083-.345-.076-.347-.069-.35-.062-.352-.055-.354-.048-.357-.041-.359-.034-.361-.026-.363-.019-.365-.011-.367,0h0Zm0,0a.115.115,0,1,1,0-.23v.23ZM10.968,7.766l.163-.163-.152-.01.277-.206.282-.2.286-.2.29-.19.294-.184.3-.178.3-.173.305-.167.309-.161.312-.155.316-.149.319-.143.323-.136.326-.13.329-.124.332-.117.335-.111.338-.1.341-.1.344-.091.347-.084.349-.077.352-.07.354-.063.357-.056.359-.049.361-.041.364-.034.366-.027.368-.019.37-.012.371,0v.23l-.367,0-.365.011-.363.019-.361.026-.359.034-.357.041-.354.048-.352.055-.35.062-.347.069-.345.076-.342.083-.339.09-.336.1-.334.1-.331.109-.328.116L15.3,5.44l-.322.128-.318.135-.315.141-.312.147-.308.153-.3.159-.3.165-.3.17-.294.176-.29.182-.286.187-.282.193-.278.2-.274.2-.152-.01Zm.152.01a.115.115,0,1,1-.14-.184l.14.184Zm-.318-.5.33.329-.163.163-.33-.329.012-.173.152.01Zm-.163.163a.115.115,0,0,1,.163-.163ZM21.553,3.585v.23h0l-.379,0-.377.012-.375.02-.373.027-.37.035-.368.042-.366.05-.363.057-.361.065-.358.072-.356.079-.353.086-.35.093-.347.1-.344.107-.341.113-.338.12-.335.127-.332.133-.328.14-.325.146-.321.152-.318.159-.314.165-.31.171-.307.177-.3.183-.3.188-.295.194-.29.2-.286.205-.282.211-.14-.183.286-.214.29-.208.294-.2.3-.2.3-.191.307-.185.311-.179.314-.173.318-.167.322-.161.326-.154.329-.148.333-.141.336-.135.339-.128.343-.122.346-.115.349-.108.352-.1L17.1,4.14l.358-.087.36-.08.363-.073.366-.065.368-.058.37-.051.373-.043.375-.035.377-.028.379-.02.381-.012.383,0h0Zm0,0a.115.115,0,1,1,0,.23v-.23ZM39.511,21.5H39.28l0-.378-.012-.376-.02-.374L39.217,20l-.035-.369-.043-.367-.05-.365-.057-.362-.065-.36L38.9,17.82l-.079-.355-.086-.352-.093-.349-.1-.346-.107-.343-.114-.34L38.2,15.4l-.127-.334-.134-.331L37.8,14.4l-.146-.324-.153-.321-.159-.317-.165-.313L37,12.819l-.177-.306-.183-.3-.189-.3-.195-.294-.2-.29-.206-.286-.211-.281.183-.14.214.285.209.289.2.294.2.3.191.3.185.306.179.31.173.314.167.317.161.321.155.325.148.328.142.332.135.335.129.339.122.342L38.65,16l.108.348.1.351.094.354.087.357.08.359.073.362.066.365.058.367.051.37.043.372.035.374.028.376.02.379.012.381,0,.382h0Zm0,0a.115.115,0,0,1-.231,0h.231ZM35.65,32.389l.163-.163-.173.011.211-.281.206-.286.2-.29.195-.294.189-.3.183-.3L37,30.181l.171-.31.165-.313.159-.317.153-.321L37.8,28.6l.14-.327.134-.331L38.2,27.6l.12-.337.114-.34.107-.343.1-.346.093-.349.086-.352.079-.355.072-.357.065-.36.057-.362.05-.365.043-.367L39.217,23l.027-.372.02-.374.012-.376,0-.378h.231l0,.382-.012.381-.02.379-.028.376-.035.374-.043.372-.051.37-.058.367-.066.365-.073.362-.08.359-.087.357-.094.354-.1.351L38.65,27l-.115.345-.122.342-.129.338-.135.335-.142.332-.148.328-.155.325-.161.321-.167.317-.173.314-.179.31-.185.306-.191.3-.2.3-.2.294-.209.289-.214.285-.173.011Zm.173-.011a.115.115,0,0,1-.183-.14l.183.14Zm-.34-.48.33.329-.163.163-.33-.329-.01-.151.174-.012Zm-.163.163a.115.115,0,0,1,.163-.163Zm3.5-10.56h.231l0,.371-.012.369-.019.367-.027.365-.034.363-.042.36-.049.358-.056.356-.063.353-.07.351-.077.348-.084.346-.091.343-.1.34-.1.337-.111.334-.118.331-.124.328-.13.325-.137.322-.143.318-.149.315-.155.312-.161.308-.167.3-.173.3-.179.3-.184.293-.19.289-.2.285-.2.281-.206.277-.184-.139.2-.273.2-.277.193-.281.188-.285.182-.289.176-.293.171-.3.165-.3.159-.3L37.1,29l.147-.311.141-.314.135-.318.129-.321.122-.324.116-.327.11-.33.1-.333.1-.336.09-.338.083-.341.076-.344.069-.346.062-.349.055-.351.048-.353.041-.356.034-.358.026-.36.019-.362.011-.364,0-.366h0Zm0,0a.115.115,0,0,1,.231,0h-.231Zm-3.5-10.56.163.163.01-.151.206.277.2.281.2.285.19.289.184.293.179.3.173.3.167.3.161.308.155.312.149.315.143.318.137.322.13.325.124.328.118.331.111.334.1.337.1.34.091.343.084.346.077.348.07.351.063.353.056.356.049.358.042.36.034.363.027.365.019.367.012.369,0,.371h-.231l0-.366-.011-.364-.019-.362-.026-.36-.034-.358-.041-.356-.048-.353-.055-.351-.062-.349-.069-.346-.076-.344-.083-.341-.09-.338-.1-.336-.1-.333-.11-.33-.116-.327-.122-.324-.129-.321-.135-.318-.141-.314L37.1,14l-.153-.307-.159-.3-.165-.3-.171-.3-.176-.293-.182-.289-.188-.285-.193-.281-.2-.277-.2-.273.01-.151Zm-.01.151a.115.115,0,0,1,.184-.139l-.184.139Zm.5-.317-.33.329-.163-.163.33-.329.173.011-.01.152Zm-.163-.163a.115.115,0,1,1,.163.163ZM3.594,21.5h.231l0,.378.012.376.02.374L3.888,23l.035.369.043.367.05.365.057.362.065.36.072.357.079.355.086.352.093.349.1.346.107.343.114.34.12.337.127.334.134.331.14.327.146.324.153.321.159.317.165.313.171.31.177.306.183.3.189.3.195.294.2.29.206.286.211.281-.183.14-.214-.285L6.859,31.8l-.2-.294-.2-.3-.191-.3L6.083,30.6l-.179-.31-.173-.314-.167-.317L5.4,29.342l-.155-.325L5.1,28.689l-.142-.332-.135-.335-.129-.339-.122-.342L4.455,27l-.108-.348-.1-.351-.094-.354-.087-.357-.08-.359-.073-.362L3.845,24.5l-.058-.367-.051-.37-.043-.372-.035-.374-.028-.376-.02-.379L3.6,21.883l0-.382h0Zm0,0a.115.115,0,0,1,.231,0H3.594ZM7.455,10.612l-.163.163.173-.011-.211.281-.206.286-.2.29-.195.294-.189.3-.183.3-.177.306-.171.31-.165.313-.159.317-.153.321L5.31,14.4l-.14.328-.134.331-.127.334-.12.337-.114.34-.107.343-.1.346-.093.349-.086.352-.079.355-.072.357-.065.36-.057.362-.05.365-.043.367L3.888,20l-.027.372-.02.374-.012.376,0,.378H3.594l0-.382.012-.381.02-.379.028-.376.035-.374.043-.372.051-.37.058-.367.066-.365.073-.362.08-.359.087-.357.094-.354.1-.351L4.455,16l.115-.345.122-.342.129-.339.135-.335.142-.332.148-.328.155-.325.161-.321.167-.317.173-.314.179-.31.185-.306.191-.3.2-.3.2-.294.209-.289.214-.285.173-.011Zm-.173.011a.115.115,0,0,1,.183.14l-.183-.14Zm.34.48-.33-.329.163-.163.33.329.01.151-.174.012Zm.163-.163a.115.115,0,1,1-.163.163ZM4.287,21.5H4.056l0-.371.012-.369.019-.367.027-.365.034-.363.042-.36.049-.358.056-.356.063-.353.07-.351.077-.348.084-.346.091-.343.1-.34.1-.337L5,15.839l.118-.331.124-.328.131-.325.137-.322.143-.318L5.8,13.9l.155-.312.161-.308.167-.3.173-.3.179-.3.184-.293.19-.289.2-.285.2-.281.206-.277.184.139-.2.273-.2.277-.193.281-.188.285L6.83,12.5l-.176.293-.171.3-.165.3-.159.3L6.006,14l-.147.311-.141.314-.135.318-.129.321-.122.324-.116.327-.11.33-.1.333-.1.336-.09.338-.083.341-.076.344-.069.346-.062.349-.055.351-.048.353-.041.356-.034.358-.026.36-.019.362-.011.364,0,.366h0Zm0,0a.115.115,0,0,1-.231,0h.231Zm3.5,10.56L7.622,31.9l-.01.151L7.4,31.771l-.2-.281-.2-.285-.19-.289-.184-.293-.179-.3-.173-.3-.167-.3-.161-.308L5.8,29.1l-.149-.315-.143-.318-.137-.322-.131-.325-.124-.328L5,27.162l-.111-.334-.1-.337-.1-.34-.091-.343-.084-.346-.077-.348-.07-.351L4.3,24.408l-.056-.356-.049-.358-.042-.36-.034-.363-.027-.365-.019-.367-.012-.369,0-.371h.231l0,.366.011.364.019.362.026.36.034.358.041.356.048.353.055.351.062.349.069.346.076.344.083.341.09.338.1.336.1.333.11.33.116.327.122.324.129.321.135.318.141.314L6.006,29l.153.307.159.3.165.3.171.3.176.293.182.289.188.285.193.281.2.277.2.273-.01.151Zm.01-.151a.115.115,0,0,1-.184.139l.184-.139Zm-.5.317.33-.329.163.163-.33.329-.173-.011.01-.152Zm.163.163a.115.115,0,0,1-.163-.163ZM29.792,10.106l-.163-.163.015.175-.216-.15-.219-.146-.221-.142-.224-.138-.227-.134-.23-.13-.232-.125-.235-.121L27.6,8.917l-.24-.112L27.119,8.7l-.245-.1-.247-.1-.25-.094-.252-.09-.254-.085-.256-.08-.258-.075L25.1,8l-.262-.066-.264-.061-.266-.056-.268-.051-.27-.046-.271-.04-.273-.035-.275-.03-.276-.025-.278-.019-.279-.014-.281-.008-.282,0v-.23l.287,0,.285.008.284.014.282.019.281.025.279.03.278.036.276.041.274.046.272.051.27.057.269.062.267.067.265.072.262.077.26.082.258.086.256.091.254.1.251.1.249.105.246.11.244.114.241.119.239.123.236.127.233.132.231.136.228.14.225.144.222.148.219.152.015.175Zm-.015-.175a.115.115,0,1,1-.134.188Zm-.48.343.332-.331.163.163-.332.331-.148.013-.015-.176Zm.163.163a.115.115,0,1,1-.163-.163ZM21.553,8.009v-.23h0l.275,0,.273.008.272.013.271.019.269.024.268.029.266.034.264.039.263.044.261.049.259.054.258.059.256.063.254.068.252.073.25.077.248.082.246.087.243.091.241.1.239.1.237.1.234.108.232.113.229.117.227.121.224.125.222.129.219.133.216.137.214.141.211.145-.133.189-.207-.142-.21-.139-.213-.135L28.466,9.9l-.218-.127-.221-.123L27.8,9.534l-.226-.115-.228-.111-.23-.107-.233-.1L26.653,9l-.237-.094-.239-.089-.242-.085-.243-.081-.246-.076L25.2,8.505l-.249-.067L24.7,8.376l-.253-.058-.255-.053-.257-.048-.258-.043-.26-.038L23.153,8.1l-.263-.028-.265-.023-.266-.018-.267-.013-.269-.008-.27,0h0Zm0,0a.115.115,0,1,1,0-.23v.23Zm-7.907,2.428.163-.163-.148-.013.211-.145.214-.141.216-.137.219-.133.222-.129.224-.125.227-.121.229-.117.232-.113.234-.108.237-.1.239-.1.241-.1L16.85,8.6l.246-.087.248-.082.25-.077.252-.073.254-.068.256-.063.258-.059.259-.054.261-.049.263-.044.264-.039.266-.034.268-.029.269-.024.271-.019L21,7.789l.273-.008.275,0v.23l-.27,0-.269.008-.267.013-.266.018-.265.023-.263.028-.262.033-.26.038-.258.043-.257.048-.255.053-.253.058-.251.062-.249.067-.248.072-.246.076-.244.081-.241.085-.239.089L16.453,9l-.235.1-.233.1-.23.107-.228.111-.226.115-.223.119-.221.123-.218.127-.215.131-.213.135-.21.139-.207.142-.148-.013Zm.148.013a.115.115,0,1,1-.133-.189Zm-.316-.507.332.331-.163.163-.332-.331.015-.175.149.012Zm-.163.163a.115.115,0,1,1,.163-.163Zm8.239-2.788v.23h0l-.282,0-.281.008-.279.014-.278.019-.276.025-.275.03-.273.035-.271.04-.27.046-.268.051-.266.056-.264.061L18.008,8l-.26.071-.258.075-.256.08-.254.085-.252.09-.25.094-.247.1-.245.1-.243.108-.24.112-.238.117-.235.121L14.8,9.28l-.23.129-.227.134-.224.138-.221.142-.219.146-.216.15-.134-.188.219-.152.222-.148.225-.144.228-.14.231-.136.233-.132.236-.127.239-.123L15.4,8.71l.244-.114.246-.11.249-.105.251-.1.254-.1.256-.091.258-.086.26-.081.262-.077.265-.072.267-.067.269-.062.27-.057.272-.051.274-.046.276-.041.278-.036.279-.03.281-.025.282-.019.284-.014.285-.008.287,0h0Zm0,0a.115.115,0,1,1,0,.23ZM35.769,21.5h-.231l0-.281-.008-.28-.014-.279-.019-.277-.025-.276-.03-.274-.035-.272-.04-.271-.046-.269-.051-.267-.056-.265-.061-.263-.066-.262-.071-.26-.076-.258-.08-.256-.085-.253-.09-.251-.094-.249-.1-.247-.1-.244-.108-.242-.112-.239-.117-.237-.121-.234-.126-.232-.13-.229-.134-.226-.138-.224-.142-.221-.146-.218-.15-.215.188-.134.153.219.149.222.145.225.14.227.136.23.132.233.128.236.123.238.119.241.114.243.11.246.105.248.1.251.1.253.091.255.087.258.082.26.077.262.072.264.067.266.062.268.057.27.052.272.046.273.041.275.036.277.03.279.025.28.02.282.014.283.008.285,0,.286h0Zm0,0a.115.115,0,0,1-.231,0h.231ZM32.974,29.72l.163-.163-.176.015.15-.215.146-.218.142-.221.138-.224.134-.226.13-.229.126-.232.121-.234.117-.237.113-.239.108-.242.1-.244.1-.247.094-.249.09-.251.085-.253.08-.256.076-.258.071-.26.066-.262.061-.263.056-.265.051-.267.046-.269.04-.271.035-.272.03-.274.025-.276.019-.277.014-.279.008-.28,0-.281h.231l0,.286-.008.285-.014.283-.02.282-.025.28-.03.279-.036.277-.041.275-.046.273-.052.272-.057.27-.062.268-.067.266-.072.264-.077.262-.082.26-.087.258-.091.255-.1.253-.1.251-.105.248-.11.246-.114.243-.119.241-.123.238L34,28.35l-.132.233-.136.23-.14.227-.144.225-.149.222-.153.219-.176.015Zm.176-.015a.115.115,0,0,1-.188-.134Zm-.344-.479.332.331-.163.163-.332-.331-.013-.148.176-.015Zm-.163.163a.115.115,0,1,1,.163-.163ZM35.076,21.5h.231l0,.274-.008.273-.013.271-.019.27-.024.268-.029.267-.034.265-.039.264-.044.262-.049.26-.054.259-.059.257-.064.255L34.8,25.2l-.073.251-.078.249-.082.247-.087.245-.091.243-.1.241-.1.238-.1.236-.109.234-.113.231-.117.229-.121.226-.125.224-.129.221-.133.219-.137.216-.141.213-.145.21-.189-.132.143-.207.139-.21.135-.212.131-.215.127-.218.123-.22.119-.223.115-.225.111-.227.107-.23.1-.232.1-.234.094-.237.09-.239.085-.241.081-.243.076-.245.072-.247.067-.249.062-.251.058-.253.053-.254.048-.256.043-.258.038-.259.033-.261.028-.262.023-.264.018-.265.013-.267.008-.268,0-.269h0Zm0,0a.115.115,0,0,1,.231,0h-.231Zm-2.433-7.888.163.163.013-.148.145.21.141.213.137.216.133.219.129.221.125.224.121.226.117.229.113.231.109.234.1.236.1.238.1.241.091.243.087.245.082.247.078.249.073.251.068.253.064.255.059.257.054.259.049.26.044.262.039.264.034.265.029.267.024.268.019.27.013.271.008.273,0,.274h-.231l0-.269-.008-.268-.013-.267-.018-.265-.023-.264-.028-.263-.033-.261-.038-.259-.043-.258-.048-.256-.053-.254-.058-.253-.062-.251-.067-.249-.072-.247-.076-.245-.081-.243-.085-.241-.09-.239-.094-.237-.1-.234-.1-.232-.107-.23-.111-.227-.115-.225-.119-.223-.123-.22-.127-.218-.131-.215-.135-.212-.139-.21-.143-.207.013-.148Zm-.013.148a.115.115,0,0,1,.189-.132Zm.508-.316-.332.331-.163-.163.332-.331.176.015-.012.148Zm-.163-.163a.115.115,0,1,1,.163.163ZM7.336,21.5h.231l0,.281.008.28.014.279.019.277.025.276.03.274.035.272.04.271.046.269.051.267.056.265.061.263.066.262.071.26.076.258.08.256.085.253.09.251.094.249.1.247.1.244.108.242.113.239.117.237.121.234.126.232.13.229.134.226.138.224.142.221.146.218.15.215-.188.134L9.8,29.486l-.149-.222-.144-.225-.14-.227-.136-.23L9.1,28.35l-.128-.236-.123-.238-.119-.241-.114-.243-.11-.246L8.4,26.9l-.1-.251-.1-.253-.091-.255-.087-.258-.082-.26-.077-.262L7.8,25.1l-.067-.266-.062-.268-.057-.27L7.56,24.02l-.046-.273-.041-.275-.036-.277-.03-.279-.025-.28-.02-.282-.014-.283-.008-.285,0-.286h0Zm0,0a.115.115,0,0,1,.231,0Zm2.795-8.219-.163.163.176-.015-.15.215-.146.218-.142.221-.138.224-.134.226-.13.229-.126.232-.121.234-.117.237-.113.239-.108.242-.1.244-.1.247-.094.249-.09.251-.085.253-.08.256-.076.258-.071.26-.066.262-.061.263-.056.265-.051.267-.046.269-.04.271-.035.272-.03.274-.025.276-.019.277-.014.279-.008.28,0,.281H7.336l0-.286.008-.285.014-.283.02-.282.025-.28.03-.279.036-.277.041-.275.046-.273.052-.272.057-.27.062-.268.067-.266.072-.264.077-.262.082-.26.087-.258.091-.255.1-.253.1-.251.105-.248.11-.246.114-.243.119-.241.123-.238.128-.236.132-.233.136-.23.14-.227.144-.225.149-.222.153-.219.176-.015Zm-.176.015a.115.115,0,0,1,.188.134Zm.344.479-.332-.331.163-.163.332.331.013.148-.176.015Zm.163-.163a.115.115,0,0,1-.163.163ZM8.029,21.5H7.8l0-.274.008-.273.013-.271.019-.27.024-.268.029-.267.034-.265.039-.264.044-.262.049-.26.054-.259.059-.257.064-.255L8.3,17.8l.073-.251.078-.249.082-.247.087-.245.091-.243.1-.241.1-.238.1-.236.109-.234.113-.231.117-.229.121-.226.125-.224.129-.221.133-.219L10,14.051l.141-.213.145-.21.189.132-.143.207-.139.21-.135.212-.131.215-.127.218-.123.22-.119.223-.115.225-.111.227-.107.23-.1.232-.1.234-.094.237-.09.239-.085.241-.081.243-.076.245-.072.247-.067.249-.062.251-.058.253-.053.254-.048.256-.043.258-.038.259-.033.261-.028.262-.023.264-.018.265-.013.267-.008.268,0,.269h0Zm0,0a.115.115,0,0,1-.231,0h.231Zm2.433,7.889-.163-.163-.013.148-.145-.21L10,28.95l-.137-.216-.133-.219L9.6,28.294l-.125-.224-.121-.226-.117-.229-.113-.231-.109-.234-.1-.236-.1-.238-.1-.241-.091-.243-.087-.245L8.454,25.7l-.078-.249L8.3,25.2l-.068-.253-.064-.255-.059-.257-.054-.259-.049-.26-.044-.262-.039-.264-.034-.265-.029-.267-.024-.268-.019-.27-.013-.271L7.8,21.774l0-.274h.231l0,.269.008.268.013.267.018.265.023.264.028.262.033.261.038.259.043.258.048.256.053.254.058.253.062.251.067.249.072.247.076.245.081.243.085.241.09.239.094.237.1.234.1.232.107.23.111.228.115.225.119.223.123.22.127.218.131.215.135.212.139.21.143.207-.013.148Zm.013-.148a.115.115,0,0,1-.189.132Zm-.508.315.332-.331.163.163-.332.331L9.955,29.7l.012-.148Zm.163.163a.115.115,0,1,1-.163-.163Z" transform="translate(0.009 0.01)" fill="#2b2a29"/>
    </g>
    <path id="Path_12272" data-name="Path 12272" d="M2534.818,5364.9a5,5,0,0,1-.256-.486,1.651,1.651,0,0,1-.1-.635,1.8,1.8,0,0,1,.4-1.016c-.185-.088-.335-.22-.538-.344a8.386,8.386,0,0,0-1.775-.83,8.732,8.732,0,0,0-2.993-.459,3.365,3.365,0,1,0-3.894,4.37,8.784,8.784,0,0,0,6.533.671A8.606,8.606,0,0,0,2534.818,5364.9Z" transform="translate(-2514.341 -5341.788)" fill="#056137" fill-rule="evenodd"/>
    <path id="Path_12273" data-name="Path 12273" d="M6295.761,5364.006a4.745,4.745,0,0,1,.283.485,1.761,1.761,0,0,1-.257,1.669c.407.221.583.406,1.211.706a8.551,8.551,0,0,0,4.952.83,8.715,8.715,0,0,0,2.984-.944,7.914,7.914,0,0,0,2.252-1.687,8.785,8.785,0,0,0-2.569-1.828,8.475,8.475,0,0,0-3.576-.839,8.217,8.217,0,0,0-3,.441A9.216,9.216,0,0,0,6295.761,5364.006Z" transform="translate(-6273.132 -5343.021)" fill="#056137" fill-rule="evenodd"/>
    <path id="Path_12274" data-name="Path 12274" d="M4494.452,6677.816a5.366,5.366,0,0,0-2.269-.706c-2.11,0-3.134,1.783-1.228,2.6a3.867,3.867,0,0,0,3.452-.45c.344-.177.636-.37.954-.538a4.473,4.473,0,0,1,.6.326c.2.115.379.221.591.318a7.42,7.42,0,0,0,1.342.512,2.733,2.733,0,0,0,2.746-.812.984.984,0,0,0-.186-1.289,2.387,2.387,0,0,0-1.253-.6,4.815,4.815,0,0,0-2.9.644c.079-.079.282-.344.38-.458.388-.451,1.845-2.1,2.021-2.437.318-.574-.08-.9-.645-.9h-5.333c-.574,0-.944.3-.662.883a6.626,6.626,0,0,0,.786,1C4493.172,6676.308,4494.222,6677.473,4494.452,6677.816Z" transform="translate(-4473.804 -6649.955)" fill="#e14124" fill-rule="evenodd"/>
    <path id="Path_12275" data-name="Path 12275" d="M6000.814,3666.709l-.026.027-.469.459a8.8,8.8,0,0,0-2.118,4.467,1.571,1.571,0,0,1,.618.177c.2.106.326.273.468.353a9.73,9.73,0,0,1,2.287-1.165,8.238,8.238,0,0,1,3-.442c.034-.08.706-.874.944-1.236a2.725,2.725,0,1,0-2.11-4.335,8.152,8.152,0,0,0-1.4.75A5.861,5.861,0,0,0,6000.814,3666.709Z" transform="translate(-5976.602 -3651.094)" fill="#018d41" fill-rule="evenodd"/>
    <path id="Path_12276" data-name="Path 12276" d="M3523.533,3667.323a8.345,8.345,0,0,1,2.993.459,8.872,8.872,0,0,1,1.775.83c.2.124.353.247.539.344a1.694,1.694,0,0,1,1.077-.539,8.436,8.436,0,0,0-.944-2.781,9.588,9.588,0,0,0-.742-1.147c-.291-.371-.583-.671-.874-.989a11.2,11.2,0,0,0-1.218-.962,9.17,9.17,0,0,0-5.068-1.492,13.37,13.37,0,0,0,.212,1.951,8.939,8.939,0,0,0,2,4.017A2.693,2.693,0,0,1,3523.533,3667.323Z" transform="translate(-3508.391 -3647.858)" fill="#018d41" fill-rule="evenodd"/>
    <path id="Path_12277" data-name="Path 12277" d="M5229.012,2655.9c-.079.388-.212.768-.291,1.192-.088.468-.088.865-.141,1.342.292.318.591.618.874.989a8,8,0,0,1,.742,1.148,8.7,8.7,0,0,1,.945,2.781h.274a8.8,8.8,0,0,1,2.119-4.467l.469-.459.026-.026c-.044-.026-.062.044-.08-.23a8.371,8.371,0,0,0-.839-3.32,8.572,8.572,0,0,0-1.836-2.578,8.78,8.78,0,0,0-1.836,2.587C5229.286,2655.184,5229.154,2655.643,5229.012,2655.9Z" transform="translate(-5209.716 -2642.741)" fill="#95be32" fill-rule="evenodd"/>
    <path id="Path_12278" data-name="Path 12278" d="M5525.994,5664.92a1.8,1.8,0,0,0-.4,1.015,1.682,1.682,0,0,0,.1.636c.079.2.176.309.256.486.15.1.256.238.485.37a1.628,1.628,0,0,0,1.483.036,4.038,4.038,0,0,0,.538-.388,1.75,1.75,0,0,0,.257-1.669,4.836,4.836,0,0,0-.283-.485c-.141-.08-.264-.248-.468-.354a1.568,1.568,0,0,0-.618-.176h-.274A1.686,1.686,0,0,0,5525.994,5664.92Z" transform="translate(-5505.637 -5643.934)" fill="#e14124" fill-rule="evenodd"/>
    <path id="Path_12279" data-name="Path 12279" d="M3709.22,8487.19h.339l-.015-.05c-.041-.137-.073-.254-.1-.349s-.042-.16-.047-.187l-.008-.042c-.011.076-.063.27-.155.578Zm.5.547-.085-.288h-.494l-.086.288h-.336l.47-1.409h.406l.471,1.409Zm.813-.016-.41-1.043h.333l.115.33c.029.084.053.158.072.22s.03.1.035.121l.006.029c.015-.056.053-.18.113-.37l.1-.33h.314l-.383,1.028q-.166.445-.5.445a.536.536,0,0,1-.117-.011v-.242a.278.278,0,0,0,.071.008A.26.26,0,0,0,3710.535,8487.722Zm1.475-1.043h.305v1.059h-.305v-.168a.322.322,0,0,1-.322.178.343.343,0,0,1-.254-.091.367.367,0,0,1-.091-.27v-.708h.305v.64c0,.123.055.187.163.187.133,0,.2-.09.2-.266Zm1.226.031v.261a.5.5,0,0,0-.259-.064.131.131,0,0,0-.083.022.064.064,0,0,0-.029.055.073.073,0,0,0,.01.036.14.14,0,0,0,.035.031c.016.009.031.019.046.025s.035.017.061.028.046.021.062.029a.542.542,0,0,1,.154.116.243.243,0,0,1,.059.168.287.287,0,0,1-.113.243.485.485,0,0,1-.3.086.72.72,0,0,1-.322-.065v-.271a.522.522,0,0,0,.305.1c.077,0,.115-.023.115-.073a.06.06,0,0,0-.011-.034.086.086,0,0,0-.035-.031.309.309,0,0,0-.046-.024l-.061-.026-.061-.027a.322.322,0,0,1-.211-.3.28.28,0,0,1,.119-.24.49.49,0,0,1,.293-.086A.709.709,0,0,1,3713.235,8486.71Zm.548-.45v.6a.313.313,0,0,1,.317-.189.344.344,0,0,1,.252.1.408.408,0,0,1,.1.3v.675h-.305v-.626a.211.211,0,0,0-.046-.145.154.154,0,0,0-.119-.053.234.234,0,0,0-.06.009.264.264,0,0,0-.062.034.171.171,0,0,0-.055.082.413.413,0,0,0-.021.14v.559h-.306v-1.478Zm1.213.419v.164a.307.307,0,0,1,.3-.175.288.288,0,0,1,.3.2.292.292,0,0,1,.12-.147.352.352,0,0,1,.2-.053.321.321,0,0,1,.248.1.419.419,0,0,1,.091.292v.679h-.305v-.629a.253.253,0,0,0-.036-.142.119.119,0,0,0-.1-.053.172.172,0,0,0-.126.058.3.3,0,0,0-.056.207v.559h-.305v-.629a.249.249,0,0,0-.036-.142.118.118,0,0,0-.1-.053.173.173,0,0,0-.126.058.3.3,0,0,0-.055.207v.559h-.305v-1.059Zm2.016.625h-.1a.2.2,0,0,0-.119.032.107.107,0,0,0-.042.087c0,.07.042.105.124.105a.127.127,0,0,0,.1-.039.155.155,0,0,0,.036-.108Zm-.5-.3v-.273a.737.737,0,0,1,.362-.073.5.5,0,0,1,.336.1.381.381,0,0,1,.111.3v.679h-.3v-.129a.265.265,0,0,1-.264.136.325.325,0,0,1-.242-.087.3.3,0,0,1-.087-.22.282.282,0,0,1,.112-.238.543.543,0,0,1,.332-.084h.134v-.073c0-.09-.059-.135-.178-.135A.566.566,0,0,0,3716.517,8487Zm1.355-.326v.179a.318.318,0,0,1,.123-.139.368.368,0,0,1,.2-.051.328.328,0,0,1,.255.1.4.4,0,0,1,.092.285v.688h-.305v-.632a.209.209,0,0,0-.044-.144.155.155,0,0,0-.123-.05.172.172,0,0,0-.139.067.3.3,0,0,0-.056.2v.561h-.305v-1.061Zm1.763.8h.169c.159,0,.238-.055.238-.163s-.079-.164-.236-.164h-.171Zm0-.9v.316h.119a.325.325,0,0,0,.189-.046.143.143,0,0,0,.064-.121c0-.1-.067-.149-.2-.149Zm-.322-.258h.548a.509.509,0,0,1,.353.11.359.359,0,0,1,.122.279.331.331,0,0,1-.059.2.287.287,0,0,1-.152.112.313.313,0,0,1,.245.331.354.354,0,0,1-.12.274.474.474,0,0,1-.327.106h-.609Zm1.56-.068v.6a.314.314,0,0,1,.318-.189.343.343,0,0,1,.252.1.406.406,0,0,1,.1.3v.675h-.305v-.626a.209.209,0,0,0-.046-.145.153.153,0,0,0-.119-.053.237.237,0,0,0-.06.009.285.285,0,0,0-.062.034.173.173,0,0,0-.054.082.4.4,0,0,0-.021.14v.559h-.305v-1.478Zm1.433,1.044h-.1a.2.2,0,0,0-.119.032.107.107,0,0,0-.042.087c0,.07.042.105.124.105a.127.127,0,0,0,.1-.039.155.155,0,0,0,.036-.108Zm-.5-.3v-.273a.74.74,0,0,1,.362-.073.5.5,0,0,1,.337.1.382.382,0,0,1,.11.3v.679h-.3v-.129a.264.264,0,0,1-.264.136.325.325,0,0,1-.242-.087.3.3,0,0,1-.087-.22.282.282,0,0,1,.112-.238.545.545,0,0,1,.332-.084h.134v-.073q0-.135-.178-.135A.57.57,0,0,0,3721.81,8487Zm1.354-.326v.2a.3.3,0,0,1,.1-.146.242.242,0,0,1,.158-.056.336.336,0,0,1,.079.008v.289a.269.269,0,0,0-.115-.023.2.2,0,0,0-.159.072.291.291,0,0,0-.061.192v.529h-.305l0-1.061Zm1,.625h-.1a.2.2,0,0,0-.119.032.107.107,0,0,0-.042.087c0,.071.041.105.123.105a.128.128,0,0,0,.1-.039.158.158,0,0,0,.036-.108Zm-.5-.3v-.273a.74.74,0,0,1,.362-.073.5.5,0,0,1,.336.1.385.385,0,0,1,.111.3v.679h-.3v-.129a.265.265,0,0,1-.264.136.325.325,0,0,1-.242-.087.3.3,0,0,1-.086-.22.281.281,0,0,1,.112-.238.543.543,0,0,1,.332-.084h.134v-.073c0-.09-.06-.134-.178-.134A.566.566,0,0,0,3723.663,8487Zm1.4-.1v.486a.11.11,0,0,0,.032.086.122.122,0,0,0,.085.03.273.273,0,0,0,.148-.042v.253a.557.557,0,0,1-.209.032.319.319,0,0,1-.362-.36v-.485h-.152v-.224h.152v-.252h.306v.252h.247v.224Z" transform="translate(-3695.451 -8455.591)" fill="#2b2a29"/>
    <path id="Path_12280" data-name="Path 12280" d="M2636.527,9064.178h.26a.658.658,0,0,0,.533-.223.948.948,0,0,0,.188-.629.788.788,0,0,0-.189-.553.688.688,0,0,0-.535-.209h-.256Zm-.587-2.1h.861a1.258,1.258,0,0,1,.925.357,1.211,1.211,0,0,1,.361.891,1.327,1.327,0,0,1-.355.979,1.271,1.271,0,0,1-.938.355h-.854Zm2.537,2.582v-1.943h.543v1.943Zm.049-2.275a.316.316,0,0,1-.093-.23.312.312,0,0,1,.093-.229.307.307,0,0,1,.446,0,.313.313,0,0,1,.093.229.317.317,0,0,1-.093.23.307.307,0,0,1-.446,0Zm1.794,1.766a.319.319,0,0,0,.273-.135.551.551,0,0,0,.1-.328q0-.521-.368-.521a.3.3,0,0,0-.256.131.608.608,0,0,0-.093.359.633.633,0,0,0,.089.367A.291.291,0,0,0,2640.32,9064.15Zm.372-1.434h.539v1.756a.881.881,0,0,1-.271.7,1,1,0,0,1-.68.236,1.554,1.554,0,0,1-.695-.146v-.57a.973.973,0,0,0,.639.215.507.507,0,0,0,.357-.107.453.453,0,0,0,.111-.338v-.131a.569.569,0,0,1-.52.262.716.716,0,0,1-.537-.238.988.988,0,0,1-.225-.705,1.055,1.055,0,0,1,.217-.684.7.7,0,0,1,.57-.27.532.532,0,0,1,.494.275Zm.985,1.943v-1.943h.542v1.943Zm.048-2.275a.316.316,0,0,1-.093-.23.312.312,0,0,1,.093-.229.307.307,0,0,1,.446,0,.311.311,0,0,1,.093.229.316.316,0,0,1-.093.23.307.307,0,0,1-.446,0Zm1.586.744v.891a.191.191,0,0,0,.208.211.466.466,0,0,0,.263-.076v.463a.921.921,0,0,1-.371.063.577.577,0,0,1-.643-.664v-.887h-.271v-.412h.271v-.459h.542v.459h.438v.412Zm1.739.734h-.175a.322.322,0,0,0-.211.061.2.2,0,0,0-.074.158c0,.131.073.2.219.2a.222.222,0,0,0,.178-.072.3.3,0,0,0,.063-.2Zm-.88-.549v-.5a1.277,1.277,0,0,1,.642-.131.856.856,0,0,1,.6.18.7.7,0,0,1,.2.553v1.244h-.531v-.236a.466.466,0,0,1-.468.248.573.573,0,0,1-.429-.16.561.561,0,0,1-.154-.4.523.523,0,0,1,.2-.436.945.945,0,0,1,.589-.154h.238v-.135q0-.246-.316-.246A.988.988,0,0,0,2644.168,9063.314Zm1.883,1.346v-2.709h.542v2.709Zm1.9,0,.215-2.582h.628l.349.934c.06.158.111.3.153.432s.069.223.082.273l.019.078a6.982,6.982,0,0,1,.26-.783l.353-.934h.628l.26,2.582h-.573l-.093-1-.048-.754c-.064.189-.154.443-.268.754l-.353.973h-.338l-.349-.973c-.057-.158-.105-.3-.145-.426s-.065-.211-.078-.26l-.019-.068c0,.182-.011.432-.033.754l-.078,1Zm3.373,0v-1.943h.542v1.943Zm.048-2.275a.316.316,0,0,1-.093-.23.311.311,0,0,1,.093-.229.307.307,0,0,1,.446,0,.313.313,0,0,1,.093.229.317.317,0,0,1-.093.23.307.307,0,0,1-.446,0Zm2.147.391v.479a.882.882,0,0,0-.46-.117.235.235,0,0,0-.148.039.123.123,0,0,0-.052.1.115.115,0,0,0,.019.064.174.174,0,0,0,.061.059c.028.018.056.033.082.047a.957.957,0,0,0,.108.053,1.045,1.045,0,0,1,.109.053.978.978,0,0,1,.275.213.458.458,0,0,1,.1.309.534.534,0,0,1-.2.445.846.846,0,0,1-.531.156,1.227,1.227,0,0,1-.572-.119v-.5a.91.91,0,0,0,.542.184c.136,0,.2-.045.2-.133a.119.119,0,0,0-.019-.064.172.172,0,0,0-.063-.059c-.03-.018-.057-.033-.082-.045l-.108-.047a1.1,1.1,0,0,1-.107-.051.585.585,0,0,1-.375-.551.521.521,0,0,1,.21-.441.841.841,0,0,1,.522-.156A1.24,1.24,0,0,1,2653.518,9062.775Zm1.62,0v.479a.884.884,0,0,0-.461-.117.236.236,0,0,0-.149.039.124.124,0,0,0-.052.1.118.118,0,0,0,.019.064.171.171,0,0,0,.061.059c.029.018.056.033.082.047a.923.923,0,0,0,.107.053,1.067,1.067,0,0,1,.11.053.988.988,0,0,1,.275.213.459.459,0,0,1,.1.309.535.535,0,0,1-.2.445.846.846,0,0,1-.531.156,1.229,1.229,0,0,1-.572-.119v-.5a.913.913,0,0,0,.542.184c.136,0,.2-.045.2-.133a.121.121,0,0,0-.018-.064.175.175,0,0,0-.063-.059c-.03-.018-.057-.033-.082-.045s-.061-.025-.107-.047a1.118,1.118,0,0,1-.108-.051.585.585,0,0,1-.375-.551.521.521,0,0,1,.21-.441.842.842,0,0,1,.522-.156,1.244,1.244,0,0,1,.483.08Zm.449,1.885v-1.943h.542v1.943Zm.048-2.275a.317.317,0,0,1-.093-.23.312.312,0,0,1,.093-.229.307.307,0,0,1,.446,0,.313.313,0,0,1,.093.229.317.317,0,0,1-.093.23.307.307,0,0,1-.446,0Zm1.79,2.307a.865.865,0,0,1-.683-.273,1.03,1.03,0,0,1-.241-.705,1.083,1.083,0,0,1,.252-.736.946.946,0,0,1,1.352-.01,1.049,1.049,0,0,1,.241.713,1.085,1.085,0,0,1-.243.727A.845.845,0,0,1,2657.426,9064.691Zm0-1.562a.291.291,0,0,0-.268.156.965.965,0,0,0,0,.814.3.3,0,0,0,.273.158.288.288,0,0,0,.265-.154.819.819,0,0,0,.087-.4C2657.783,9063.318,2657.663,9063.129,2657.423,9063.129Zm1.82-.412v.332a.554.554,0,0,1,.217-.256.639.639,0,0,1,.352-.094.582.582,0,0,1,.453.178.747.747,0,0,1,.164.521v1.262h-.542V9063.5a.385.385,0,0,0-.078-.262.273.273,0,0,0-.219-.092.308.308,0,0,0-.247.121.562.562,0,0,0-.1.361v1.027h-.542v-1.943Z" transform="translate(-2626.236 -9029.178)" fill="#e14124"/>
    <path id="Path_12281" data-name="Path 12281" d="M1257.024,10508.379v0a.332.332,0,0,0-.069-.221.474.474,0,0,0-.189-.126.409.409,0,0,0,.069-.049.3.3,0,0,0,.057-.066.327.327,0,0,0,.039-.082.364.364,0,0,0,.015-.108v0a.33.33,0,0,0-.121-.268.517.517,0,0,0-.334-.1h-.642v1.415h.657a.893.893,0,0,0,.212-.023.5.5,0,0,0,.164-.072.35.35,0,0,0,.1-.121A.377.377,0,0,0,1257.024,10508.379Zm-.377-.6a.122.122,0,0,1-.059.114.312.312,0,0,1-.16.036h-.281v-.3h.3a.253.253,0,0,1,.148.036.125.125,0,0,1,.052.108Zm.077.565a.13.13,0,0,1-.057.117.293.293,0,0,1-.158.037h-.362v-.311h.352a.285.285,0,0,1,.172.041.133.133,0,0,1,.053.111Zm1.484.427v-1.083h-.3v.6a.24.24,0,0,1-.05.165.179.179,0,0,1-.137.055.17.17,0,0,1-.134-.055.25.25,0,0,1-.048-.165v-.6h-.3v.7a.432.432,0,0,0,.094.295.333.333,0,0,0,.266.108.367.367,0,0,0,.1-.015.332.332,0,0,0,.083-.04.373.373,0,0,0,.068-.055.78.78,0,0,0,.056-.066v.154Zm.591-1.2v-.272h-.316v.272Zm-.008,1.2v-1.083h-.3v1.083Zm.6,0v-1.476h-.3v1.476Zm1.348,0v-1.476h-.3v.533a.554.554,0,0,0-.131-.113.381.381,0,0,0-.2-.047.481.481,0,0,0-.182.035.453.453,0,0,0-.153.108.562.562,0,0,0-.107.176.663.663,0,0,0-.041.239v0a.655.655,0,0,0,.041.239.532.532,0,0,0,.108.176.437.437,0,0,0,.154.108.459.459,0,0,0,.18.037.36.36,0,0,0,.2-.051.446.446,0,0,0,.133-.125v.154Zm-.3-.539a.359.359,0,0,1-.021.123.285.285,0,0,1-.056.095.226.226,0,0,1-.081.063.253.253,0,0,1-.2,0,.234.234,0,0,1-.082-.062.271.271,0,0,1-.056-.095.359.359,0,0,1-.021-.123v0a.347.347,0,0,1,.021-.123.292.292,0,0,1,.056-.095.245.245,0,0,1,.282-.062.25.25,0,0,1,.081.063.3.3,0,0,1,.056.1.349.349,0,0,1,.021.122Zm.888-.664v-.272h-.316v.272Zm-.008,1.2v-1.083h-.3v1.083Zm1.253,0v-.7a.432.432,0,0,0-.094-.295.335.335,0,0,0-.266-.106.3.3,0,0,0-.186.053.424.424,0,0,0-.068.055.791.791,0,0,0-.056.067v-.155h-.3v1.083h.3v-.6a.239.239,0,0,1,.05-.165.178.178,0,0,1,.137-.055.17.17,0,0,1,.134.055.25.25,0,0,1,.047.165v.6h.3Zm1.326-.243v-.84h-.3v.143a.569.569,0,0,0-.14-.116.391.391,0,0,0-.2-.046.491.491,0,0,0-.176.032.435.435,0,0,0-.15.1.48.48,0,0,0-.1.157.56.56,0,0,0-.039.216v0a.561.561,0,0,0,.039.215.465.465,0,0,0,.1.159.431.431,0,0,0,.15.1.481.481,0,0,0,.178.034.377.377,0,0,0,.2-.048.529.529,0,0,0,.146-.129v.053a.3.3,0,0,1-.074.221.3.3,0,0,1-.228.074.607.607,0,0,1-.191-.026.869.869,0,0,1-.167-.072l-.1.23a.937.937,0,0,0,.22.084,1.035,1.035,0,0,0,.249.029.931.931,0,0,0,.259-.032.464.464,0,0,0,.185-.1.427.427,0,0,0,.11-.178A.815.815,0,0,0,1263.9,10508.523Zm-.3-.351a.25.25,0,0,1-.02.1.239.239,0,0,1-.055.08.228.228,0,0,1-.082.051.255.255,0,0,1-.1.019.258.258,0,0,1-.184-.068.238.238,0,0,1-.073-.182v0a.256.256,0,0,1,.02-.1.24.24,0,0,1,.054-.08.234.234,0,0,1,.081-.051.285.285,0,0,1,.1-.019.294.294,0,0,1,.1.019.228.228,0,0,1,.082.051.241.241,0,0,1,.055.08.258.258,0,0,1,.02.1Zm2.465-.113v0a.707.707,0,0,0-.053-.277.65.65,0,0,0-.151-.224.688.688,0,0,0-.233-.148.793.793,0,0,0-.3-.055h-.54v1.415h.54a.774.774,0,0,0,.3-.054.723.723,0,0,0,.233-.15.659.659,0,0,0,.151-.224A.724.724,0,0,0,1266.068,10508.06Zm-.318,0a.472.472,0,0,1-.031.173.425.425,0,0,1-.085.133.352.352,0,0,1-.132.087.474.474,0,0,1-.17.03h-.235v-.853h.235a.454.454,0,0,1,.17.031.365.365,0,0,1,.132.087.407.407,0,0,1,.085.136.47.47,0,0,1,.031.172Zm.879-.5v-.272h-.316v.272Zm-.008,1.2v-1.083h-.3v1.083Zm1.348-.243v-.84h-.3v.143a.568.568,0,0,0-.14-.116.391.391,0,0,0-.2-.046.493.493,0,0,0-.176.032.433.433,0,0,0-.15.1.476.476,0,0,0-.1.157.554.554,0,0,0-.04.216v0a.559.559,0,0,0,.039.215.465.465,0,0,0,.1.159.43.43,0,0,0,.15.1.478.478,0,0,0,.178.034.377.377,0,0,0,.2-.048.527.527,0,0,0,.146-.129v.053a.3.3,0,0,1-.074.221.305.305,0,0,1-.228.074.608.608,0,0,1-.191-.026.858.858,0,0,1-.167-.072l-.1.23a.935.935,0,0,0,.219.084,1.036,1.036,0,0,0,.249.029.929.929,0,0,0,.259-.032.463.463,0,0,0,.185-.1.429.429,0,0,0,.111-.178A.818.818,0,0,0,1267.969,10508.523Zm-.3-.351a.248.248,0,0,1-.02.1.244.244,0,0,1-.054.08.228.228,0,0,1-.082.051.286.286,0,0,1-.287-.05.238.238,0,0,1-.073-.182v0a.256.256,0,0,1,.02-.1.244.244,0,0,1,.054-.08.231.231,0,0,1,.081-.051.285.285,0,0,1,.1-.019.3.3,0,0,1,.1.019.231.231,0,0,1,.082.051.24.24,0,0,1,.054.08.254.254,0,0,1,.02.1Zm.887-.609v-.272h-.316v.272Zm-.008,1.2v-1.083h-.3v1.083Zm.878-.043v-.248a.293.293,0,0,1-.148.038c-.065,0-.1-.034-.1-.1v-.463h.249v-.263h-.249v-.276h-.3v.276h-.126v.263h.126v.514a.452.452,0,0,0,.023.156.267.267,0,0,0,.063.1.243.243,0,0,0,.1.054.5.5,0,0,0,.125.015.419.419,0,0,0,.132-.018.544.544,0,0,0,.1-.044Zm1.137.043v-.628a.494.494,0,0,0-.113-.345.47.47,0,0,0-.36-.122.968.968,0,0,0-.229.023,1.039,1.039,0,0,0-.182.063l.075.234a1.19,1.19,0,0,1,.139-.044.653.653,0,0,1,.153-.016.248.248,0,0,1,.17.052.183.183,0,0,1,.057.147v.018a.806.806,0,0,0-.118-.032.748.748,0,0,0-.141-.012.639.639,0,0,0-.173.021.384.384,0,0,0-.134.064.285.285,0,0,0-.088.106.349.349,0,0,0-.032.154v0a.338.338,0,0,0,.029.143.323.323,0,0,0,.078.1.3.3,0,0,0,.116.063.444.444,0,0,0,.141.022.433.433,0,0,0,.188-.038.423.423,0,0,0,.133-.1v.117Zm-.285-.382a.173.173,0,0,1-.064.139.266.266,0,0,1-.171.053.183.183,0,0,1-.119-.036.112.112,0,0,1-.045-.1v-.006a.128.128,0,0,1,.056-.11.257.257,0,0,1,.152-.038.5.5,0,0,1,.1.011.435.435,0,0,1,.088.03Zm.858.382v-1.476h-.3v1.476Zm2.078,0v-1.415h-.3v.561h-.561v-.561h-.3v1.415h.3v-.567h.561v.567Zm1.289-.511v0a.782.782,0,0,0-.031-.221.551.551,0,0,0-.095-.189.453.453,0,0,0-.161-.129.5.5,0,0,0-.229-.049.518.518,0,0,0-.212.043.512.512,0,0,0-.165.123.554.554,0,0,0-.108.179.62.62,0,0,0-.039.219v0a.6.6,0,0,0,.042.228.544.544,0,0,0,.116.178.514.514,0,0,0,.176.114.583.583,0,0,0,.22.041.549.549,0,0,0,.251-.055.528.528,0,0,0,.182-.148l-.172-.155a.412.412,0,0,1-.122.084.312.312,0,0,1-.134.026.244.244,0,0,1-.259-.212h.737c0-.014,0-.027,0-.038S1274.506,10508.271,1274.506,10508.256Zm-.292-.115h-.453a.316.316,0,0,1,.076-.168.2.2,0,0,1,.153-.062.2.2,0,0,1,.152.063A.311.311,0,0,1,1274.214,10508.141Zm1.427.626v-.628a.486.486,0,0,0-.113-.343.463.463,0,0,0-.36-.124.97.97,0,0,0-.229.023,1.234,1.234,0,0,0-.182.063l.075.234a1.167,1.167,0,0,1,.139-.044.654.654,0,0,1,.153-.016.248.248,0,0,1,.17.052.183.183,0,0,1,.057.147v.018a.8.8,0,0,0-.117-.032.751.751,0,0,0-.141-.012.639.639,0,0,0-.173.021.383.383,0,0,0-.134.064.285.285,0,0,0-.088.106.351.351,0,0,0-.032.154v0a.336.336,0,0,0,.029.143.312.312,0,0,0,.194.167.448.448,0,0,0,.141.022.435.435,0,0,0,.188-.038.424.424,0,0,0,.133-.1v.117Zm-.285-.382a.173.173,0,0,1-.064.139.267.267,0,0,1-.171.053.183.183,0,0,1-.119-.036.112.112,0,0,1-.045-.1v0a.13.13,0,0,1,.055-.112.259.259,0,0,1,.152-.038.5.5,0,0,1,.1.011.438.438,0,0,1,.088.03Zm.858.382v-1.476h-.3v1.476Zm.878-.043v-.248a.293.293,0,0,1-.148.038c-.064,0-.1-.034-.1-.1v-.464h.249v-.263h-.249v-.276h-.3v.276h-.126v.263h.126v.514a.455.455,0,0,0,.023.156.257.257,0,0,0,.063.1.243.243,0,0,0,.1.054.5.5,0,0,0,.125.015.424.424,0,0,0,.133-.018A.541.541,0,0,0,1277.092,10508.724Zm1.2.043v-.7a.432.432,0,0,0-.094-.295.334.334,0,0,0-.266-.106.3.3,0,0,0-.186.053.485.485,0,0,0-.068.055.791.791,0,0,0-.056.067v-.548h-.3v1.477h.3v-.6a.239.239,0,0,1,.05-.165.179.179,0,0,1,.137-.055.17.17,0,0,1,.134.055.251.251,0,0,1,.047.165v.6h.3Zm1.937,0v-.276h-.751v-.3h.652v-.276h-.652v-.288h.741v-.276h-1.042v1.415Zm1.174-.174-.176-.182a.513.513,0,0,1-.112.084.26.26,0,0,1-.131.032.254.254,0,0,1-.111-.023.263.263,0,0,1-.139-.16.344.344,0,0,1-.019-.116v0a.349.349,0,0,1,.019-.114.283.283,0,0,1,.053-.093.23.23,0,0,1,.081-.063.227.227,0,0,1,.1-.023.262.262,0,0,1,.135.031.53.53,0,0,1,.106.088l.184-.2a.54.54,0,0,0-.174-.133.551.551,0,0,0-.249-.049.544.544,0,0,0-.224.045.5.5,0,0,0-.175.121.556.556,0,0,0-.115.179.584.584,0,0,0-.042.219v0a.567.567,0,0,0,.042.217.556.556,0,0,0,.115.179.545.545,0,0,0,.175.12.534.534,0,0,0,.22.045.521.521,0,0,0,.257-.056A.689.689,0,0,0,1281.4,10508.593Zm1.291-.365v0a.548.548,0,0,0-.044-.218.545.545,0,0,0-.3-.3.628.628,0,0,0-.457,0,.577.577,0,0,0-.182.123.557.557,0,0,0-.164.4v0a.557.557,0,0,0,.163.4.539.539,0,0,0,.181.119.582.582,0,0,0,.227.044.578.578,0,0,0,.411-.166.556.556,0,0,0,.164-.4Zm-.3,0a.351.351,0,0,1-.019.114.3.3,0,0,1-.054.095.282.282,0,0,1-.086.063.272.272,0,0,1-.116.023.267.267,0,0,1-.114-.025.281.281,0,0,1-.088-.065.287.287,0,0,1-.057-.095.331.331,0,0,1-.02-.114v0a.356.356,0,0,1,.019-.114.282.282,0,0,1,.054-.093.231.231,0,0,1,.086-.063.272.272,0,0,1,.116-.023.267.267,0,0,1,.113.023.271.271,0,0,1,.089.065.3.3,0,0,1,.057.095.346.346,0,0,1,.02.115Zm1.291.206v0a.261.261,0,0,0-.03-.128.286.286,0,0,0-.075-.088.412.412,0,0,0-.1-.062.98.98,0,0,0-.113-.044l-.082-.028a.574.574,0,0,1-.068-.029.211.211,0,0,1-.047-.033.049.049,0,0,1-.018-.039v0a.062.062,0,0,1,.028-.053.132.132,0,0,1,.083-.021.383.383,0,0,1,.132.026,1.041,1.041,0,0,1,.154.074l.115-.212a.729.729,0,0,0-.191-.093.689.689,0,0,0-.2-.032.477.477,0,0,0-.151.022.352.352,0,0,0-.122.065.321.321,0,0,0-.083.109.332.332,0,0,0-.031.146v0a.281.281,0,0,0,.029.133.3.3,0,0,0,.074.092.364.364,0,0,0,.1.061.872.872,0,0,0,.112.039l.083.026c.026.008.05.018.07.025a.156.156,0,0,1,.048.031.062.062,0,0,1,.018.044v0a.068.068,0,0,1-.031.058.159.159,0,0,1-.1.022.444.444,0,0,1-.161-.033.679.679,0,0,1-.173-.1l-.128.2a.738.738,0,0,0,.224.125.722.722,0,0,0,.23.04.594.594,0,0,0,.159-.021.379.379,0,0,0,.13-.064.285.285,0,0,0,.086-.107A.372.372,0,0,0,1283.684,10508.438Zm1.224-.754h-.312l-.231.738-.241-.738h-.318l.415,1.087a.144.144,0,0,1-.042.057.124.124,0,0,1-.062.015.2.2,0,0,1-.064-.012.343.343,0,0,1-.064-.03l-.1.222a.6.6,0,0,0,.121.055.446.446,0,0,0,.146.021.4.4,0,0,0,.118-.016.276.276,0,0,0,.092-.053.4.4,0,0,0,.074-.095.861.861,0,0,0,.063-.14Zm.955.754v0a.262.262,0,0,0-.03-.128.289.289,0,0,0-.075-.088.415.415,0,0,0-.1-.062.971.971,0,0,0-.113-.044l-.082-.028a.57.57,0,0,1-.068-.029.213.213,0,0,1-.048-.033.049.049,0,0,1-.018-.039v0a.061.061,0,0,1,.028-.053.132.132,0,0,1,.083-.021.381.381,0,0,1,.132.026,1.041,1.041,0,0,1,.154.074l.115-.212a.729.729,0,0,0-.191-.093.687.687,0,0,0-.2-.032.474.474,0,0,0-.151.022.352.352,0,0,0-.123.065.322.322,0,0,0-.083.109.332.332,0,0,0-.031.146v0a.284.284,0,0,0,.029.133.3.3,0,0,0,.074.092.366.366,0,0,0,.1.061.883.883,0,0,0,.112.039l.083.026c.026.008.05.018.07.025a.157.157,0,0,1,.048.031.063.063,0,0,1,.018.044v0a.068.068,0,0,1-.031.058.159.159,0,0,1-.1.022.442.442,0,0,1-.161-.033.677.677,0,0,1-.173-.1l-.129.2a.741.741,0,0,0,.224.125.721.721,0,0,0,.23.04.6.6,0,0,0,.159-.021.378.378,0,0,0,.129-.064.28.28,0,0,0,.086-.107A.372.372,0,0,0,1285.862,10508.438Zm.81.286v-.248a.294.294,0,0,1-.148.04c-.065,0-.1-.036-.1-.105v-.464h.249v-.263h-.249v-.276h-.3v.276H1286v.263h.126v.514a.452.452,0,0,0,.023.156.26.26,0,0,0,.063.1.243.243,0,0,0,.1.054.5.5,0,0,0,.126.015.421.421,0,0,0,.132-.018.543.543,0,0,0,.1-.044Zm1.214-.468v0a.782.782,0,0,0-.031-.221.551.551,0,0,0-.095-.189.451.451,0,0,0-.161-.129.5.5,0,0,0-.229-.049.519.519,0,0,0-.213.043.512.512,0,0,0-.165.123.548.548,0,0,0-.108.179.623.623,0,0,0-.038.219v0a.6.6,0,0,0,.041.228.546.546,0,0,0,.116.178.512.512,0,0,0,.176.114.585.585,0,0,0,.22.041.547.547,0,0,0,.251-.055.526.526,0,0,0,.182-.148l-.172-.155a.412.412,0,0,1-.123.084.312.312,0,0,1-.134.026.245.245,0,0,1-.259-.212h.737c0-.014,0-.027,0-.038S1287.886,10508.271,1287.886,10508.256Zm-.292-.115h-.453a.324.324,0,0,1,.076-.168.2.2,0,0,1,.153-.062.2.2,0,0,1,.152.063A.315.315,0,0,1,1287.594,10508.141Zm2.133.627v-.706a.413.413,0,0,0-.095-.3.337.337,0,0,0-.263-.1.428.428,0,0,0-.194.043.49.49,0,0,0-.154.129.3.3,0,0,0-.118-.127.346.346,0,0,0-.181-.045.381.381,0,0,0-.1.013.371.371,0,0,0-.084.04.492.492,0,0,0-.068.055.791.791,0,0,0-.056.067v-.155h-.3v1.084h.3v-.6a.238.238,0,0,1,.048-.163.165.165,0,0,1,.134-.057.157.157,0,0,1,.13.057.248.248,0,0,1,.045.163v.6h.3v-.6a.237.237,0,0,1,.049-.163.165.165,0,0,1,.133-.057.157.157,0,0,1,.13.057.248.248,0,0,1,.045.163v.6h.3Z" transform="translate(-1251.227 -10469.317)" fill="#29298c"/>
  </g>
</svg>
