<svg xmlns="http://www.w3.org/2000/svg" width="24" height="24" viewBox="0 0 24 24">
  <g id="Path_1403" data-name="Path 1403" transform="translate(-55.8 -34.462)" fill="none">
    <path d="M79.8,43.619v13a1.758,1.758,0,0,1-1.646,1.84H72.016a1.758,1.758,0,0,1-1.646-1.84V50.3a1.758,1.758,0,0,0-1.646-1.84H66.876A1.758,1.758,0,0,0,65.23,50.3v6.319a1.758,1.758,0,0,1-1.646,1.84H57.446a1.758,1.758,0,0,1-1.646-1.84V43.634a1.948,1.948,0,0,1,.5-1.327l10.482-7.326A1.528,1.528,0,0,1,69.088,35L79.3,42.307A1.91,1.91,0,0,1,79.8,43.619Z" stroke="none"/>
    <path d="M 67.92415618896484 36.62215042114258 L 67.92420959472656 36.6221923828125 L 57.80000305175781 43.69796371459961 L 57.80000305175781 56.4623908996582 L 63.23002624511719 56.4623908996582 L 63.23002624511719 50.30340957641602 C 63.23002624511719 48.18608093261719 64.86555480957031 46.4635009765625 66.87588500976562 46.4635009765625 L 68.72411346435547 46.4635009765625 C 70.73445129394531 46.4635009765625 72.36997985839844 48.18608093261719 72.36997985839844 50.30340957641602 L 72.36997985839844 56.4623908996582 L 77.80000305175781 56.4623908996582 L 77.80000305175781 43.69211196899414 L 67.92415618896484 36.62215042114258 M 67.93324279785156 34.46239471435547 C 68.35206604003906 34.46239471435547 68.76958465576172 34.63955307006836 69.08835601806641 34.99591064453125 L 79.30083465576172 42.30686187744141 C 79.62461853027344 42.65373992919922 79.80000305175781 43.12126159667969 79.80000305175781 43.61894226074219 L 79.80000305175781 56.62247085571289 C 79.80000305175781 57.63291931152344 79.05799865722656 58.4623908996582 78.15412139892578 58.4623908996582 L 72.01583862304688 58.4623908996582 C 71.11197662353516 58.4623908996582 70.36997985839844 57.63291931152344 70.36997985839844 56.62247085571289 L 70.36997985839844 50.30340957641602 C 70.36997985839844 49.29296875 69.62799072265625 48.4635009765625 68.72411346435547 48.4635009765625 L 66.87588500976562 48.4635009765625 C 65.97200012207031 48.4635009765625 65.23002624511719 49.29296875 65.23002624511719 50.30340957641602 L 65.23002624511719 56.62247085571289 C 65.23002624511719 57.63291931152344 64.48802947998047 58.4623908996582 63.58415222167969 58.4623908996582 L 57.44586944580078 58.4623908996582 C 56.5419921875 58.4623908996582 55.80000305175781 57.63291931152344 55.80000305175781 56.62247085571289 L 55.80000305175781 43.6340217590332 C 55.80000305175781 43.1363410949707 55.97537231445312 42.65373992919922 56.29915618896484 42.30686187744141 L 66.78145599365234 34.98081970214844 C 67.10344696044922 34.63586044311523 67.51898956298828 34.46239471435547 67.93324279785156 34.46239471435547 Z" stroke="none" fill="#bfbfbf"/>
  </g>
</svg>
