<svg xmlns="http://www.w3.org/2000/svg" width="24" height="24" viewBox="0 0 24 24">
  <g id="Path_1371" data-name="Path 1371" transform="translate(0 -0.5)" fill="none">
    <path d="M20.38,2.188H18.749V1.521a1.019,1.019,0,1,0-2.038,0v.663H7.234V1.521a1.019,1.019,0,1,0-2.038,0v.663H3.62A3.64,3.64,0,0,0,0,5.81V20.873A3.637,3.637,0,0,0,3.62,24.5H20.331A3.7,3.7,0,0,0,24,20.927V5.81A3.633,3.633,0,0,0,20.38,2.188ZM3.62,4.176H5.2v.663A1.025,1.025,0,0,0,6.22,5.86a.981.981,0,0,0,1.019-.972V4.23h9.478v.613a1.025,1.025,0,0,0,1.019,1.021,1.045,1.045,0,0,0,1.019-.972V4.23h1.631a1.592,1.592,0,0,1,1.582,1.585V7.332H2.038V5.761A1.592,1.592,0,0,1,3.62,4.176Zm18.343,16.7a1.592,1.592,0,0,1-1.582,1.585H3.62a1.592,1.592,0,0,1-1.582-1.585V9.374h19.93v11.5Z" stroke="none"/>
    <path d="M 6.215509414672852 0.5 C 6.773880004882812 0.5 7.234289169311523 0.9613494873046875 7.234289169311523 1.52086067199707 L 7.234289169311523 2.183439254760742 L 16.71183967590332 2.183439254760742 L 16.71183967590332 1.52086067199707 C 16.71183967590332 0.9613494873046875 17.17223930358887 0.5 17.73060989379883 0.5 C 18.28898048400879 0.5 18.7493896484375 0.9613494873046875 18.7493896484375 1.52086067199707 L 18.7493896484375 2.188339233398438 L 20.38040924072266 2.188339233398438 C 22.36898040771484 2.188339233398438 24 3.817789077758789 24 5.810430526733398 L 24 20.9269905090332 C 23.95101928710938 22.86564064025879 22.31999969482422 24.5 20.33143043518066 24.5 L 3.619590759277344 24.5 C 1.631019592285156 24.5 0 22.86564064025879 0 20.87300109863281 L 0 5.810430526733398 C 0 3.817789077758789 1.631019592285156 2.188339233398438 3.619590759277344 2.183439254760742 L 5.196739196777344 2.183439254760742 L 5.196739196777344 1.52086067199707 C 5.196739196777344 0.9613494873046875 5.657140731811523 0.5 6.215509414672852 0.5 Z M 6.220409393310547 5.85951042175293 C 5.662040710449219 5.85951042175293 5.201629638671875 5.398160934448242 5.201629638671875 4.838649749755859 L 5.201629638671875 4.176069259643555 L 3.619590759277344 4.176069259643555 C 2.752649307250977 4.176069259643555 2.03754997253418 4.89263916015625 2.03754997253418 5.761350631713867 L 2.03754997253418 7.331899642944336 L 21.96735000610352 7.331899642944336 L 21.96735000610352 5.815340042114258 C 21.96735000610352 4.946620941162109 21.25223922729492 4.230060577392578 20.38530921936035 4.230060577392578 L 18.7542896270752 4.230060577392578 L 18.7542896270752 4.89263916015625 C 18.70529937744141 5.457059860229492 18.24489974975586 5.864419937133789 17.73550987243652 5.864419937133789 C 17.17713928222656 5.864419937133789 16.71673011779785 5.403070449829102 16.71673011779785 4.843559265136719 L 16.71673011779785 4.230060577392578 L 7.239179611206055 4.230060577392578 L 7.239179611206055 4.887729644775391 C 7.239179611206055 5.452150344848633 6.778770446777344 5.85951042175293 6.220409393310547 5.85951042175293 Z M 21.96735000610352 20.87300109863281 L 21.96735000610352 9.37362003326416 L 2.03754997253418 9.37362003326416 L 2.03754997253418 20.87300109863281 C 2.03754997253418 21.74172019958496 2.752649307250977 22.45828056335449 3.619590759277344 22.45828056335449 L 20.38040924072266 22.45828056335449 C 21.24735069274902 22.45828056335449 21.96245002746582 21.74172019958496 21.96245002746582 20.87300109863281 L 21.96735000610352 20.87300109863281 Z" stroke="none" fill="#bfbfbf"/>
  </g>
</svg>
