<svg xmlns="http://www.w3.org/2000/svg" width="24.25" height="24.25" viewBox="0 0 24.25 24.25">
  <g id="Group_133965" data-name="Group 133965" transform="translate(0.125 0.125)">
    <path id="Path_11878" data-name="Path 11878" d="M140.744,75.311a.75.75,0,0,0,.75-.75V71.5h3.062a.75.75,0,1,0,0-1.5h-3.812a.75.75,0,0,0-.75.75v3.812A.75.75,0,0,0,140.744,75.311ZM163.244,70h-3.812a.75.75,0,0,0,0,1.5h3.062v3.062a.75.75,0,1,0,1.5,0V70.749A.75.75,0,0,0,163.244,70ZM144.556,92.5h-3.062V89.437a.75.75,0,1,0-1.5,0v3.812a.75.75,0,0,0,.75.75h3.812a.75.75,0,1,0,0-1.5Zm18.688-3.812a.75.75,0,0,0-.75.75V92.5h-3.062a.75.75,0,0,0,0,1.5h3.812a.75.75,0,0,0,.75-.75V89.437A.75.75,0,0,0,163.244,88.687ZM150.056,73.874h-5.5a.75.75,0,0,0-.75.75v5.5a.75.75,0,0,0,.75.75h5.5a.75.75,0,0,0,.75-.75v-5.5A.75.75,0,0,0,150.056,73.874Zm-.75,5.5h-4v-4h4Zm.75,3.813h-5.5a.75.75,0,0,0-.75.75v5.5a.75.75,0,0,0,.75.75h5.5a.75.75,0,0,0,.75-.75v-5.5a.75.75,0,0,0-.75-.75Zm-.75,5.5h-4v-4h4Zm4.626-7.813h5.5a.75.75,0,0,0,.75-.75v-5.5a.75.75,0,0,0-.75-.75h-5.5a.75.75,0,0,0-.75.75v5.5A.75.75,0,0,0,153.932,80.874Zm.75-5.5h4v4h-4Zm-.75,10.811a.75.75,0,0,0,.75-.75v-.748h1.313a.75.75,0,0,0,0-1.5h-2.063a.75.75,0,0,0-.75.75v1.5a.75.75,0,0,0,.75.75Zm4.75,3.252h0a.75.75,0,0,0,1.5,0v-2.75a.75.75,0,0,0-.75-.75h-2.75a.75.75,0,0,0,0,1.5h2Zm-3.187-.75h-1.563a.75.75,0,1,0,0,1.5h1.563a.75.75,0,1,0,0-1.5Zm3.937-6.8h0a.75.75,0,0,0-.75.75v1.3a.75.75,0,0,0,1.5,0v-1.3a.75.75,0,0,0-.75-.75Zm-6.308,5.183a.753.753,0,1,0-.019.651.752.752,0,0,0,.019-.651Zm0-4.72a.748.748,0,1,0-.272.919.748.748,0,0,0,.272-.919Z" transform="translate(-139.994 -69.999)" fill="#262626" stroke="#232323" stroke-width="0.25"/>
  </g>
</svg>
