<svg xmlns="http://www.w3.org/2000/svg" width="24.04" height="24.168" viewBox="0 0 24.04 24.168">
  <g id="Union_36" data-name="Union 36" transform="translate(-5900 6998)" fill="none">
    <path d="M5903.662-6973.833a3.628,3.628,0,0,1-3.622-3.626l-.041-11.778a3.631,3.631,0,0,1,3.618-3.625h1.422v-1.565a3.7,3.7,0,0,1,3.669-3.574h6.71a3.637,3.637,0,0,1,3.62,3.627v1.515h1.342a3.623,3.623,0,0,1,3.618,3.621l.041,11.832a3.69,3.69,0,0,1-3.667,3.572Zm-1.625-15.452v1.57l0,.883h.037v9.372a1.586,1.586,0,0,0,1.584,1.586h16.76a1.585,1.585,0,0,0,1.581-1.586l.005-9.372h.034v-2a2.01,2.01,0,0,0-.083-.571,1.6,1.6,0,0,0-1.573-1.412h-.079a2.152,2.152,0,0,0-.265-.018h-15v-.039h-1.422A1.585,1.585,0,0,0,5902.038-6989.284Zm5.035-3.59H5917v-1.5a1.592,1.592,0,0,0-1.583-1.584h-6.76a1.592,1.592,0,0,0-1.582,1.584h-.005Zm4.389,13.079v-2.959h-2.91a1.024,1.024,0,0,1-1.021-1.021,1.025,1.025,0,0,1,1.021-1.02h2.91v-2.912a1.027,1.027,0,0,1,1.021-1.021,1.027,1.027,0,0,1,1.022,1.021v2.912h2.959a1.025,1.025,0,0,1,1.021,1.02,1.069,1.069,0,0,1-1.07,1.021h-2.91v2.959a1.028,1.028,0,0,1-1.022,1.022A1.027,1.027,0,0,1,5911.461-6979.795Z" stroke="none"/>
    <path d="M 5920.373046875 -6973.83251953125 L 5903.662109375 -6973.83251953125 C 5901.6650390625 -6973.83251953125 5900.04052734375 -6975.458984375 5900.04052734375 -6977.458984375 L 5900 -6989.23681640625 C 5900 -6991.23193359375 5901.623046875 -6992.85791015625 5903.6181640625 -6992.86181640625 L 5905.04052734375 -6992.861328125 L 5905.04052734375 -6994.42626953125 C 5905.08984375 -6996.365234375 5906.72119140625 -6998.00048828125 5908.70947265625 -6998.00048828125 L 5915.419921875 -6998.00048828125 C 5917.41015625 -6998.00048828125 5919.0400390625 -6996.365234375 5919.0400390625 -6994.37353515625 L 5919.0400390625 -6992.8583984375 L 5920.3818359375 -6992.85791015625 C 5922.376953125 -6992.85791015625 5923.99951171875 -6991.2333984375 5923.99951171875 -6989.23681640625 L 5924.0400390625 -6977.40478515625 C 5923.99072265625 -6975.43603515625 5922.34521484375 -6973.83251953125 5920.373046875 -6973.83251953125 Z M 5903.6181640625 -6990.8701171875 C 5902.7470703125 -6990.8701171875 5902.03759765625 -6990.15869140625 5902.03759765625 -6989.2841796875 L 5902.03759765625 -6987.7138671875 L 5902.041015625 -6986.83056640625 L 5902.07763671875 -6986.83056640625 L 5902.07763671875 -6977.458984375 C 5902.07763671875 -6976.58447265625 5902.787109375 -6975.873046875 5903.662109375 -6975.873046875 L 5920.421875 -6975.873046875 C 5921.29296875 -6975.873046875 5922.00244140625 -6976.58447265625 5922.00244140625 -6977.458984375 L 5922.0078125 -6986.83056640625 L 5922.04150390625 -6986.83056640625 L 5922.04150390625 -6988.83251953125 C 5922.04150390625 -6989.02587890625 5922.01318359375 -6989.21923828125 5921.95849609375 -6989.4033203125 C 5921.869140625 -6990.19580078125 5921.1787109375 -6990.8154296875 5920.38525390625 -6990.8154296875 L 5920.30615234375 -6990.8154296875 C 5920.22021484375 -6990.826171875 5920.13037109375 -6990.8330078125 5920.041015625 -6990.8330078125 L 5905.04052734375 -6990.83154296875 L 5905.04052734375 -6990.8701171875 L 5903.6181640625 -6990.8701171875 Z M 5907.07275390625 -6994.37353515625 L 5907.07275390625 -6992.8740234375 L 5917.00244140625 -6992.8740234375 L 5917.00244140625 -6994.37353515625 C 5917.00244140625 -6995.2412109375 5916.28759765625 -6995.9580078125 5915.419921875 -6995.9580078125 L 5908.66015625 -6995.9580078125 C 5907.79248046875 -6995.9580078125 5907.078125 -6995.2412109375 5907.078125 -6994.37353515625 L 5907.07275390625 -6994.37353515625 Z M 5912.48193359375 -6978.77294921875 C 5911.92333984375 -6978.77294921875 5911.46142578125 -6979.23486328125 5911.46142578125 -6979.794921875 L 5911.46142578125 -6982.75439453125 L 5908.55126953125 -6982.75439453125 C 5907.98779296875 -6982.75439453125 5907.53076171875 -6983.21630859375 5907.53076171875 -6983.77490234375 C 5907.53076171875 -6984.3349609375 5907.9912109375 -6984.794921875 5908.55126953125 -6984.794921875 L 5911.46142578125 -6984.794921875 L 5911.46142578125 -6987.70703125 C 5911.46142578125 -6988.265625 5911.92333984375 -6988.7275390625 5912.48193359375 -6988.7275390625 C 5913.0419921875 -6988.7275390625 5913.50390625 -6988.265625 5913.50390625 -6987.70703125 L 5913.50390625 -6984.794921875 L 5916.46337890625 -6984.794921875 C 5917.0234375 -6984.794921875 5917.48388671875 -6984.3349609375 5917.48388671875 -6983.77490234375 C 5917.48388671875 -6983.21630859375 5916.974609375 -6982.75439453125 5916.4140625 -6982.75439453125 L 5913.50390625 -6982.75439453125 L 5913.50390625 -6979.794921875 C 5913.50390625 -6979.23486328125 5913.0419921875 -6978.77294921875 5912.48193359375 -6978.77294921875 Z" stroke="none" fill="#bfbfbf"/>
  </g>
</svg>
